<svg version="1.1" xmlns="http://www.w3.org/2000/svg" viewBox="0 0 1356.0070103236608 787.5937933612381" width="1356.0070103236608" height="787.5937933612381">
  <!-- svg-source:excalidraw -->
  
  <defs>
    <style>
      @font-face {
        font-family: "Virgil";
        src: url("https://excalidraw.com/Virgil.woff2");
      }
      @font-face {
        font-family: "Cascadia";
        src: url("https://excalidraw.com/Cascadia.woff2");
      }
    </style>
  </defs>
  <rect x="0" y="0" width="1356.0070103236608" height="787.5937933612381" fill="#ffffff"></rect><g stroke-linecap="round" transform="translate(322.7991852954396 281.95567843203895) rotate(0 122.83203125 38.53160858154297)"><path d="M0 0 C0 0, 0 0, 0 0 M0 0 C0 0, 0 0, 0 0 M-0.84 5.9 C1.65 4.42, 2.25 2.84, 4.87 0.98 M-0.49 6.05 C2.13 3.89, 4.1 1.83, 5.38 0.55 M1.03 11.59 C3.87 7.8, 9.76 2.33, 10.01 -0.51 M0.05 11.83 C2 9.9, 5.6 7.22, 9.98 -0.76 M1.78 18.74 C3.42 14.29, 7.33 6.69, 15.98 0.72 M-0.51 17.6 C4.79 12.43, 9.03 8.46, 15.73 -0.3 M-0.42 26.02 C7.84 16.45, 14.96 6.57, 21.83 1.8 M-0.21 23.5 C5.21 19.29, 8.65 13.87, 20.32 -0.78 M1.59 31.67 C8.53 20.15, 18.74 8.12, 27.35 -1.19 M-0.1 30.81 C4.48 24.15, 11.54 16.7, 26.44 -0.1 M-1.02 38.61 C6.57 27.42, 17.12 20, 33.29 -1.18 M0.39 36.7 C9.01 28.69, 15.93 17.79, 31.72 -0.93 M-0.4 41.14 C9.89 32.11, 21.4 19.56, 36.44 0.34 M0.72 41.62 C8.28 32.82, 16.23 23.38, 37.64 -0.69 M-1.48 49.78 C12.58 33.49, 26.89 18.94, 41.3 -0.09 M-0.4 49.8 C15.79 32.11, 29.77 16.08, 41.98 -0.32 M1 54.52 C14.92 36.9, 28.54 23.04, 47.25 0.64 M0.82 55.18 C10.48 42.99, 21.48 30.31, 47.94 -0.04 M1.69 61.46 C18.63 41.68, 33.6 20.66, 52.27 -1.26 M0.32 61.67 C20.65 36.82, 42.04 14.59, 52.62 -0.18 M-0.33 68.06 C23.94 40.15, 47.03 15.41, 60.1 0.16 M0.03 67.07 C17.92 46.85, 37.61 24.08, 58.05 1.09 M0.93 71.99 C21.57 51.89, 38.63 27.01, 63.96 -0.92 M0.2 73.57 C19.05 48.87, 39.63 27.73, 63.75 -1.09 M0.12 76.43 C28.23 48.59, 53.38 18.06, 69.69 -1.47 M2.02 77.74 C14.79 62.58, 28.74 46.57, 69.74 0.06 M4.95 80.1 C26.51 53.03, 46.84 29.22, 75.48 0.9 M5.85 78.18 C30.51 49.69, 55.22 20.8, 75.07 0.05 M12.78 77.15 C27.76 59.81, 42.53 45.43, 79.03 0.54 M12.63 78.07 C28.8 59.09, 44.81 38.25, 78.86 -0.56 M15.59 77.93 C39.11 53.42, 64.9 24.7, 85.26 -1.7 M16.74 77.6 C30.51 63.24, 45.15 47.04, 84.83 -1.01 M23.05 76.77 C47.65 49.11, 72.99 19.79, 89.48 -1.89 M21.88 78.44 C49 47.49, 74.38 15.82, 90.34 -0.04 M25.75 76.59 C46.86 57.53, 65.39 36.21, 97.1 1.55 M28.15 77.93 C40.55 61.07, 56.12 45.6, 94.89 -0.8 M34.84 79.44 C57.47 53.1, 79.31 24.76, 98.77 0.36 M32.55 78.36 C47.11 60.96, 62.82 43.81, 101.19 -0.48 M37.27 79.05 C57.57 52.18, 81.24 29.4, 106.12 -0.93 M38.03 79.13 C62.72 47.87, 89.36 18.94, 105.66 -1.22 M43.41 79.44 C63.2 55.01, 84.07 26.78, 110.94 -0.48 M44 78.01 C63.03 53.86, 84.52 31.2, 111.49 0.19 M50.32 79.44 C71.86 50.71, 99.61 22.56, 116.16 0.19 M49.39 77.33 C62.94 61.16, 76.35 46.91, 116.49 0.26 M53.36 79.24 C69.99 55.58, 90.24 35.54, 122.39 1.01 M55.16 77.23 C74.64 56.45, 92.3 33.89, 121.41 -0.77 M57.42 77.02 C76.29 57.67, 96.48 38.6, 128.33 2.15 M59.35 77.84 C74.07 60.1, 90.81 41.25, 127.26 0.6 M64.62 79.44 C86.9 48.8, 111.77 24.8, 131.86 1.38 M65.56 78.54 C87.84 51.98, 110.84 23.21, 132.19 0.04 M69.45 78.25 C90.52 55.56, 112.25 30.54, 139.15 0.59 M70.07 78.14 C91.97 54.12, 111.97 30.47, 137.49 0.68 M74.5 76.82 C87.94 61.74, 103.27 42.65, 142.44 -1.64 M76.29 78.13 C99.7 48.92, 125.02 20.05, 143.15 -0.77 M81.61 78.72 C104.58 53.73, 125.01 27.4, 149.13 0.54 M79.82 78.89 C101.95 53.59, 123.42 30.91, 147.9 -0.7 M86.96 79.04 C110.27 49.89, 134.36 21.57, 155.56 0.81 M86.36 77.63 C111.9 48.32, 139.35 17.09, 154.7 -0.46 M91.47 77.17 C111.91 56.51, 129.16 35.66, 160.12 -0.77 M91.94 78.9 C116.1 47.8, 142.46 17.71, 158.81 0.93 M97.3 79.67 C118.24 52.77, 141.83 27.22, 164.99 -1.21 M96.33 78.05 C117.72 54.25, 137.67 31.81, 165.3 -1.08 M100.9 77.52 C117.54 60.73, 130.33 45.05, 169.3 0 M101.84 78.18 C125.98 50.98, 149.5 23.17, 169.1 0.72 M106.18 76.72 C131.46 52.15, 156.54 22.39, 174.84 1.46 M107.38 77.37 C132.66 49.78, 159.3 19.51, 174.51 -0.53 M114.17 78.82 C129.87 55.5, 146.49 36.07, 179.23 -1.62 M112.01 78.89 C135.28 50.95, 158 25.04, 179.25 -0.52 M116.26 79.56 C137.9 54.89, 158.64 29.1, 185.59 -0.82 M116.92 78.45 C141.7 51.34, 164.01 23.46, 185.97 0.46 M123.85 77.31 C145.91 54.85, 164.78 28, 191.77 0.04 M123.02 78.37 C139.58 58.99, 156.45 39.26, 190.3 0.7 M129.55 79.74 C147.14 53.08, 169.07 29.26, 196.02 1.44 M128.92 78.84 C149.26 52.31, 171.49 25.55, 196.38 -0.66 M132.87 76.34 C154.02 53.1, 176.66 30.88, 202.17 -1.21 M134.52 78.13 C156.78 51.26, 180.64 24.42, 200.89 -0.45 M137.4 76.97 C162.24 51.37, 184.94 23.58, 205.3 -1.09 M138.96 77.78 C156.14 57.26, 176.31 35.76, 206.55 -1.26 M144.5 76.45 C167.76 49.06, 190.4 21.99, 212.98 -1.36 M144.23 76.85 C164.54 55.08, 186.19 32.18, 212.2 -0.15 M150.5 77.11 C165.42 58.99, 182.45 39.44, 218.91 1.39 M149.17 79.15 C173.36 52.56, 196.11 25.31, 218.32 -0.55 M156.37 77.34 C169.89 60.92, 181.39 43.57, 224.12 -0.28 M154.97 77.4 C173.27 56.52, 193.92 33.16, 223.03 -0.9 M160.9 78.18 C182.06 49.39, 208.57 23.58, 226.68 -0.14 M159.27 78.52 C182.67 54.19, 204.1 27.59, 227.65 -0.57 M166.43 75.84 C192.03 46.05, 218.06 17.17, 234.85 0.32 M165.62 77.8 C186.36 51.69, 208.81 28.77, 232.73 -0.52 M171.98 76.34 C197.16 50.93, 222.24 19.41, 240.14 1.19 M171.56 78.13 C196.98 47.32, 224.91 17.17, 238.91 -0.42 M174.99 75.96 C195.39 55.4, 214.28 33.67, 245.77 -1.09 M176.13 78.24 C195.86 54.1, 216.37 30.75, 244.24 0.85 M180.46 79.92 C207.17 50.22, 232.12 19.16, 247.82 0.67 M181.91 77.89 C206.65 48.33, 231.72 18.2, 247.2 1.2 M186.69 78.85 C198.14 59.96, 213.07 46.27, 246.27 7.64 M186.55 78.1 C208.71 52.35, 232.71 24.43, 248.52 7.26 M190.41 79.41 C203.43 64.99, 212.59 53.47, 248.05 14.54 M192.78 78.38 C208.95 58.29, 226.99 37.67, 248.16 13.58 M195.87 77.58 C215.41 53.57, 237.07 33.94, 247.6 21 M197.33 77.67 C207.86 67.08, 217.33 53.66, 246.63 20.64 M203.25 77.46 C213.56 65.83, 219.75 54.85, 249.23 27.84 M202.2 77.85 C215.37 64.73, 225.91 50.97, 247.25 26.81 M207.18 80.11 C220.32 60.42, 236.96 45.21, 247.63 31.9 M206.99 78.17 C216.8 67.67, 227.24 56.99, 247.48 31.82 M211.73 78.85 C224.13 63.2, 237.56 47.7, 248.9 39.31 M212.78 77.23 C223.05 67.46, 231.03 57.2, 247.79 37.72 M217.64 79.83 C226.81 69.38, 234.42 57.51, 247.7 44.15 M217.14 79.22 C226.15 68.69, 235.01 59.87, 247.68 44.09 M221.96 76.55 C233.98 69.82, 241.32 60.46, 248.32 49.62 M224.7 77.12 C227.54 73.08, 233.68 66.65, 246.56 51.05 M229.27 78.5 C236.44 68.27, 242.18 61.2, 249.12 54.99 M228.14 78.9 C235.46 71.88, 240.69 64.4, 247.05 56.66 M235.37 77.66 C238.15 75.62, 239.55 70.73, 249.03 64.32 M234.74 78.78 C238.55 71.8, 244.09 67.08, 247.34 63.46 M238.77 77.48 C242.5 76.17, 243.08 74, 247.03 69.33 M239.4 77.71 C241.47 75.09, 244.1 72.28, 247.32 68.41" stroke="#fa5252" stroke-width="0.5" fill="none"></path><path d="M0.27 0.58 C68.85 -0.2, 141.73 -1.43, 245.28 0.92 M0.28 -0.6 C85.71 -0.18, 171.88 -0.55, 245.76 -0.09 M243.89 -0.39 C246.93 21.84, 246 44.13, 245.39 77.96 M246.64 -0.06 C245.79 19.78, 245.23 38.49, 246.5 77.13 M244.46 78.67 C161.11 74.66, 74.94 76.43, 1.17 78 M246.15 76.78 C185.46 77.28, 124.62 78.22, 0.18 76.9 M-0.94 76.54 C-1.39 48.23, -2.52 15.5, 1.81 -0.99 M0.61 76.5 C-0.26 57.17, -0.16 37.78, -0.64 0.22" stroke="#5f3dc4" stroke-width="1" fill="none"></path></g><g transform="translate(345.60019542727554 307.1066183734452) rotate(0 100 12)"><text x="0" y="19" font-family="Cascadia, Segoe UI Emoji" font-size="20px" fill="#5f3dc4" text-anchor="start" style="white-space: pre;" direction="ltr">DID Connect Relay</text></g><g stroke-linecap="round" transform="translate(620.4977326587209 692.3956885028397) rotate(0 122.83203125 38.53160858154297)"><path d="M1.43 -0.36 C62.6 -0.91, 125.16 1.6, 246.62 -1.48 M0.62 0.62 C64.46 1.82, 129.83 1.67, 245.11 0.35 M244.71 -1.22 C245.35 22.63, 243.53 41.78, 245.1 78.83 M245.94 -0.54 C245.14 30.18, 245.03 59.52, 246.03 77.04 M245.86 76.85 C166.08 75.96, 84.86 77.96, 0.91 78.09 M245.96 77.42 C188.99 76.59, 131.93 76.35, 0.69 77.27 M-1.74 76.18 C-1.08 50.91, -0.43 20.71, 0.63 1.42 M0.62 76.53 C0.55 54.77, 0.41 31.25, -0.04 0.35" stroke="#862e9c" stroke-width="1" fill="none"></path></g><g transform="translate(649.1802888110647 717.5270819354569) rotate(0 88 12)"><text x="0" y="19" font-family="Cascadia, Segoe UI Emoji" font-size="20px" fill="#862e9c" text-anchor="start" style="white-space: pre;" direction="ltr">Blocklet WebApp</text></g><g stroke-linecap="round" transform="translate(11.6070466235646 700.5305761981522) rotate(0 122.83203125 38.53160858154297)"><path d="M0 0 C0 0, 0 0, 0 0 M0 0 C0 0, 0 0, 0 0 M-0.65 6.7 C0.86 3.94, 4.08 2.89, 5.34 0.86 M-0.2 6.07 C1.62 4.91, 2.63 3.13, 4.93 0.6 M-0.72 12.29 C5 7.25, 7.39 3.57, 9.36 -1.03 M-0.1 12.59 C3.09 8.7, 6.92 4.94, 9.88 -0.68 M-1.89 18.71 C6.25 12.9, 10.81 7.46, 14.17 2.22 M-0.38 18.49 C3.77 14.38, 6.97 11.08, 14.63 -0.02 M0.62 25.43 C7.83 16.46, 13.77 11.49, 20.27 0.86 M0.18 23.1 C7.75 15.34, 17.48 4.13, 21.31 -0.76 M-0.23 29.72 C8.71 21.73, 13.56 14.95, 24.8 -1.56 M0.52 30.29 C8.92 20.23, 19.69 8.49, 27.04 1.25 M-1.76 36.12 C7.82 29.57, 13.39 17.97, 31.26 0.4 M0.65 36.23 C12.68 21.74, 24.61 7.44, 31.25 -0.06 M0.65 43.31 C13.64 30.69, 23.49 17.13, 36.46 -1.62 M0.85 43 C14.26 26.17, 28.19 11.79, 36.59 1.16 M0.07 48.91 C7.99 38.44, 18.74 27.46, 42.14 0.76 M0.02 49.07 C15.53 30.21, 30.51 13.8, 43.43 -0.15 M1.01 52.79 C13.69 42.08, 23.1 25.68, 46.21 1.28 M-0.51 55.28 C14.77 38.98, 28.5 24.03, 46.88 0.29 M-1.36 61.67 C13.36 44.98, 28.25 30.31, 54.39 1.52 M0.15 61.02 C12.27 45.48, 25.42 30.97, 53.34 -0.73 M-2.2 68.37 C23.89 41.8, 47.08 14.88, 59.44 -0.46 M0.22 68.24 C21.54 41.38, 44.67 15.88, 57.55 0.38 M-0.53 72.67 C20.78 47.83, 43.69 22.29, 64.83 0.41 M-0.36 73.88 C16.59 52.91, 32.75 36.06, 63.08 -0.84 M2.58 78.63 C18.25 58.16, 35.43 41.58, 67.9 0.75 M0.67 77.88 C19.3 55.17, 39.39 32.95, 69.36 -0.64 M4.33 76.58 C27.65 52.98, 47.6 28.28, 75.61 -0.68 M6.08 78.84 C24.24 56.34, 42.48 36.44, 74.28 0.13 M12.86 79.04 C26.02 60.08, 39.02 43.98, 79.67 1.6 M12.65 78.59 C34.14 50.48, 58.49 23.97, 79.13 0.3 M16.12 77.48 C42.91 49.64, 71.98 18.67, 84.26 -1.7 M15.92 78.57 C30.68 63.7, 43.92 47.91, 85.19 -0.5 M21.08 78.1 C44.51 55.3, 64.6 29.83, 89.18 1.98 M22.16 78.3 C37.58 60.46, 51.85 43.25, 90.75 0.47 M28.81 78.42 C43.77 61.91, 59.46 41.6, 97.61 1.56 M27.39 77.66 C47.51 55.6, 66.59 33.48, 95.62 0.23 M34.22 77.87 C54.42 54.61, 75.93 31.86, 99.21 -1.08 M33.94 78.04 C53.58 56.57, 72.97 34.04, 100.2 0.31 M37.28 78.3 C56.5 59.79, 72.83 36.47, 105.87 -0.55 M37.42 78.62 C62.79 48.72, 88.66 20.16, 105.96 -0.03 M42.61 78.59 C62.54 55.92, 83.4 29.21, 110.86 0.62 M43.32 77.52 C61.47 58.52, 77.44 39.51, 110.53 0.42 M46.78 79.19 C72.23 51.51, 95.56 22.69, 115.91 -0.75 M47.99 78.11 C62.84 60.58, 78.29 42.93, 115.53 0.79 M53.9 76.66 C79.65 49.69, 104.19 19.75, 121.61 0.4 M55.2 78.12 C74.28 53.73, 93.61 32.75, 122.89 0.58 M58.9 76.3 C83.77 51.22, 107.62 23.11, 127.93 0.12 M59.17 77.97 C74.94 60.32, 88.63 43.98, 126.17 1.17 M63.11 78.62 C88.54 52.15, 111.47 25.03, 131.25 -1.23 M65.09 77.89 C90.53 48.19, 115.12 19.97, 133.47 0.73 M69.56 80 C94.98 51.81, 117.87 22.9, 137.51 -0.37 M70.13 78.22 C87.44 58.44, 103.99 37.77, 137.38 -0.48 M74.58 79.17 C99.89 46.33, 128.11 16.51, 143.94 1.4 M76.02 78.55 C96.82 52.83, 120.17 27.19, 142.57 0 M79.04 77.84 C108.61 47.28, 132.46 14.39, 148.21 0.79 M80.07 78.03 C98.35 57.01, 115.25 37.22, 147.83 0.17 M87.35 79.94 C103.04 57.06, 122.35 36.7, 154.15 1.08 M85 79.25 C107.31 53.72, 129.08 29.26, 153.56 -0.32 M89.96 76.49 C107.8 63.06, 119.73 46.98, 156.94 -1.28 M91.3 78.77 C109.36 57.26, 126.4 37.81, 157.82 1.13 M95.78 76.42 C116.66 54.85, 134.49 33.95, 164.74 -0.2 M96.54 78.55 C109.99 61.29, 124.29 46.59, 163.88 0.23 M101.27 79.81 C118.26 59.72, 134.86 37.3, 167.96 -1.27 M102.22 76.95 C122.48 54.23, 144.38 27.98, 170.21 1.08 M107.58 76.54 C130 54.46, 150.47 29.71, 176.88 -1.32 M107.8 77.94 C122.46 60.49, 137.04 43.06, 176.06 0.3 M114.28 78.79 C128.6 59.03, 146.74 39.83, 178.88 -1.74 M112.27 77.28 C138.14 47.69, 164.48 17.86, 179.44 0.35 M116.5 79.63 C140.71 53.74, 160.73 27.37, 184.09 -0.01 M118.15 77.83 C134.79 58.65, 151.58 37.79, 186.69 -0.32 M122.64 77.59 C142.09 54.32, 164.1 31.83, 190.63 0.93 M123.01 77.64 C140.86 58.17, 157.22 39.01, 190.51 -0.02 M127.58 79.18 C151.11 51.48, 173.92 21.65, 198.24 1.18 M127.54 77.3 C152.42 49.62, 176.46 21.85, 195.46 0.36 M134.34 79.52 C155.23 52.13, 180.3 25.82, 201.51 -1.49 M133.04 78.05 C150.13 58.86, 164.54 41.98, 202.03 0.65 M139.26 76.83 C156.3 55.09, 178.16 34.12, 207.54 0.85 M139.49 79.1 C156.66 58.14, 172.88 39.78, 206.13 -0.5 M145.71 77.05 C159.24 58.99, 177.59 36.59, 213.15 0.91 M145.06 77.74 C158.72 60.63, 175.28 41.26, 211.17 -0.28 M149.28 76.38 C166.56 59.76, 183.94 40.79, 218.54 0.73 M150.14 78.67 C165.59 60.85, 181.04 42.02, 217.53 0.41 M155.44 77.81 C168.71 62.21, 183.97 42.66, 224.52 -1.78 M154.85 78.1 C175.75 54.74, 196.07 31.11, 222.67 0.23 M160.75 77.77 C176.09 60.03, 192.38 39.31, 230.15 -0.26 M159.15 79.09 C177.2 57.14, 193.8 38.36, 228.58 -0.41 M166.54 78.58 C189.88 51.8, 213.27 23.54, 233.95 -1.33 M166.26 77.68 C184.48 55.98, 202.8 36.02, 233.86 -0.11 M172.11 79.12 C192.37 51.53, 215.2 27.01, 238.94 0.7 M170.79 78.14 C185.87 59.68, 203.53 41.15, 238.6 0.46 M176.39 79.3 C202.21 46.48, 230.41 17.04, 245.09 -1.35 M176.22 77.2 C199.59 51.28, 221.75 24.48, 243.66 0.07 M183.16 78.69 C197.57 59.15, 216.25 40, 246.5 2.82 M180.92 77.26 C208.63 48.27, 234.84 17.57, 247.69 0.87 M186.7 77.06 C205.89 54.47, 222.64 35.55, 246.41 8.26 M187.73 78.59 C204.69 58.11, 221.84 37.93, 246.99 8.37 M193.01 76.92 C211.31 58.74, 227.85 36.61, 248.24 14.3 M191.94 78.56 C206.86 61.49, 221.8 43.12, 248.44 14.63 M196.85 76.86 C211.07 63.03, 225 45.61, 248.2 19.93 M196.22 78.65 C207.92 65.12, 219.37 54.37, 246.87 20.26 M202.16 78.37 C214.71 65.34, 222.53 53.39, 249.61 24.09 M201.87 77.83 C216.03 63.01, 229.97 47.69, 247.28 26.37 M208.57 78.61 C217.31 65.74, 226.58 53.84, 247.42 32.49 M207.18 79.13 C217.93 66.62, 226.33 56.62, 248.19 32.08 M214.41 77.77 C220.81 70.45, 230.24 60.98, 249.23 38.89 M213.28 77.53 C221.44 67.85, 230.06 57.54, 248.5 37.44 M219.93 79.62 C226.94 71.81, 230.61 62.76, 248.45 43.71 M217.19 78.21 C224.02 71.75, 231.95 63.96, 247.53 44.66 M222.94 78.04 C231.31 70.5, 236.29 63.03, 245.39 51.29 M224.33 77.77 C229.93 71, 234.84 66.15, 247.85 51.11 M230.03 77.61 C237.23 72.41, 243.1 60.63, 247.68 56.76 M229.56 78.46 C232.47 74.04, 236.84 70.07, 248.67 56.74 M236.25 76.2 C240.54 70.36, 245.4 64.52, 248.73 62.79 M233.74 77.37 C238.37 75.08, 240 70.09, 248.08 62.59 M239.98 77.74 C240.78 75.99, 245.64 73.14, 247.2 67.48 M238.95 78.51 C242.21 74.22, 245.94 71.51, 247.31 68.62" stroke="#ced4da" stroke-width="0.5" fill="none"></path><path d="M-0.16 0.11 C88.53 -2.3, 173.49 -0.45, 245.67 -1.06 M0.47 0.53 C66.41 -0.67, 132.57 -1.14, 245.19 0.35 M246.24 -1.7 C245.66 15.97, 246.75 33.68, 247.02 75.31 M245.87 -0.5 C246.82 28.98, 246.69 58.88, 246.48 77.5 M244.54 77.71 C172.71 75.54, 100.65 75.74, -1.09 78.44 M245.08 76.27 C156.34 76.87, 66.06 76.78, 0.18 77.62 M-1.46 78.77 C-0.36 46.73, 0.23 15.1, -0.85 1.31 M-0.98 77.95 C0.1 60.91, -1.32 43.53, 0.91 0.53" stroke="#d9480f" stroke-width="1" fill="none"></path></g><g transform="translate(76.3975739673146 725.3387884784256) rotate(0 59 12)"><text x="0" y="19" font-family="Cascadia, Segoe UI Emoji" font-size="20px" fill="#d9480f" text-anchor="start" style="white-space: pre;" direction="ltr">DID Wallet</text></g><g stroke-linecap="round"><g transform="translate(464.7135800475174 369.86803232876116) rotate(0 129.36505239784242 157.2383903258759)"><path d="M-0.31 -0.61 C42.99 51.88, 215.74 261.33, 259.04 313.93 M1.73 1.69 C44.92 54.41, 215.13 263.22, 257.98 315.08" stroke="#000000" stroke-width="1" fill="none"></path></g><g transform="translate(464.7135800475174 369.86803232876116) rotate(0 129.36505239784242 157.2383903258759)"><path d="M231.16 299.43 C236.95 303.86, 244.93 308.07, 257.91 314.11 M231.46 300.24 C240.96 305.36, 250.78 310.61, 258.47 315.76" stroke="#000000" stroke-width="1" fill="none"></path></g><g transform="translate(464.7135800475174 369.86803232876116) rotate(0 129.36505239784242 157.2383903258759)"><path d="M247.03 286.42 C248.93 293.91, 253.13 301.21, 257.91 314.11 M247.33 287.23 C251.05 297.25, 255.02 307.3, 258.47 315.76" stroke="#000000" stroke-width="1" fill="none"></path></g></g><g stroke-linecap="round"><g transform="translate(613.5128693774709 733.1622824359451) rotate(0 -170.6049791284837 1.3091562824789094)"><path d="M-0.28 -1.1 C-57.21 -0.52, -285.13 1.95, -342.01 2.74 M1.78 0.94 C-55.28 1.69, -285.67 3.05, -342.99 3.71" stroke="#000000" stroke-width="1" fill="none"></path></g><g transform="translate(613.5128693774709 733.1622824359451) rotate(0 -170.6049791284837 1.3091562824789094)"><path d="M-316.71 -6.86 C-324.19 -3.38, -330.09 0.45, -343.4 4.67 M-315.22 -6.01 C-324.37 -2.98, -334.5 0.66, -343.67 3.66" stroke="#000000" stroke-width="1" fill="none"></path></g><g transform="translate(613.5128693774709 733.1622824359451) rotate(0 -170.6049791284837 1.3091562824789094)"><path d="M-316.54 13.66 C-323.93 11.7, -329.88 10.09, -343.4 4.67 M-315.05 14.51 C-324.11 10.3, -334.3 6.7, -343.67 3.66" stroke="#000000" stroke-width="1" fill="none"></path></g></g><g stroke-linecap="round"><g transform="translate(433.55403580739625 373.1804938092781) rotate(0 -132.0184098860547 157.20992009583864)"><path d="M0.29 0.64 C-43.59 53.18, -219.55 262.24, -263.27 314.49 M-1.02 -0.07 C-45.07 52.15, -220.78 259.91, -264.33 312.49" stroke="#000000" stroke-width="1" fill="none"></path></g><g transform="translate(433.55403580739625 373.1804938092781) rotate(0 -132.0184098860547 157.20992009583864)"><path d="M-253.02 283.94 C-256.95 294.44, -260.57 300.05, -264.22 314.32 M-254.44 283.66 C-256.39 290.39, -258.23 296.93, -264.21 311.99" stroke="#000000" stroke-width="1" fill="none"></path></g><g transform="translate(433.55403580739625 373.1804938092781) rotate(0 -132.0184098860547 157.20992009583864)"><path d="M-237.29 297.13 C-245.84 303.72, -254.16 305.39, -264.22 314.32 M-238.71 296.84 C-243.94 300.81, -249.07 304.59, -264.21 311.99" stroke="#000000" stroke-width="1" fill="none"></path></g></g><g transform="translate(339.5615350632443 552.0220947265625) rotate(0 123 47.5)"><text x="0" y="18.75" font-family="Cascadia, Segoe UI Emoji" font-size="20px" fill="#000000" text-anchor="start" style="white-space: pre;" direction="ltr">@did-connect/protocol</text><text x="0" y="42.5" font-family="Cascadia, Segoe UI Emoji" font-size="20px" fill="#000000" text-anchor="start" style="white-space: pre;" direction="ltr">@did-connect/types</text><text x="0" y="66.25" font-family="Cascadia, Segoe UI Emoji" font-size="20px" fill="#000000" text-anchor="start" style="white-space: pre;" direction="ltr">@did-connect/state</text><text x="0" y="90" font-family="Cascadia, Segoe UI Emoji" font-size="20px" fill="#000000" text-anchor="start" style="white-space: pre;" direction="ltr">@arcblock/jwt</text></g><g transform="translate(885.708463154142 703.8128274584571) rotate(0 105.5 23.5)"><text x="0" y="19.5" font-family="Cascadia, Segoe UI Emoji" font-size="20px" fill="#000000" text-anchor="start" style="white-space: pre;" direction="ltr">@did-connect/react</text><text x="0" y="43" font-family="Cascadia, Segoe UI Emoji" font-size="20px" fill="#000000" text-anchor="start" style="white-space: pre;" direction="ltr">@did-connect/vue</text></g><g transform="translate(586.8273053850446 275.8898053850446) rotate(0 152.5 47.5)"><text x="0" y="18.75" font-family="Cascadia, Segoe UI Emoji" font-size="20px" fill="#000000" text-anchor="start" style="white-space: pre;" direction="ltr">@did-connect/authenticator</text><text x="0" y="42.5" font-family="Cascadia, Segoe UI Emoji" font-size="20px" fill="#000000" text-anchor="start" style="white-space: pre;" direction="ltr">@did-connect/handler</text><text x="0" y="66.25" font-family="Cascadia, Segoe UI Emoji" font-size="20px" fill="#000000" text-anchor="start" style="white-space: pre;" direction="ltr">@did-connect/storage-*</text><text x="0" y="90" font-family="Cascadia, Segoe UI Emoji" font-size="20px" fill="#000000" text-anchor="start" style="white-space: pre;" direction="ltr">@did-connect/adapter-*</text></g><g transform="translate(1016.7939104352683 221.87508719308016) rotate(0 158 35.5)"><text x="0" y="18.666666666666668" font-family="Cascadia, Segoe UI Emoji" font-size="20px" fill="#000000" text-anchor="start" style="white-space: pre;" direction="ltr">@did-connect/storage-memory</text><text x="0" y="42.333333333333336" font-family="Cascadia, Segoe UI Emoji" font-size="20px" fill="#000000" text-anchor="start" style="white-space: pre;" direction="ltr">@did-connect/storage-nedb</text><text x="0" y="66" font-family="Cascadia, Segoe UI Emoji" font-size="20px" fill="#000000" text-anchor="start" style="white-space: pre;" direction="ltr">@did-connect/storage-mongo</text></g><g transform="translate(1017.0070103236608 396.37782505580356) rotate(0 164.5 35.5)"><text x="0" y="18.666666666666668" font-family="Cascadia, Segoe UI Emoji" font-size="20px" fill="#000000" text-anchor="start" style="white-space: pre;" direction="ltr">@did-connect/adapter-express</text><text x="0" y="42.333333333333336" font-family="Cascadia, Segoe UI Emoji" font-size="20px" fill="#000000" text-anchor="start" style="white-space: pre;" direction="ltr">@did-connect/adapter-koa*</text><text x="0" y="66" font-family="Cascadia, Segoe UI Emoji" font-size="20px" fill="#000000" text-anchor="start" style="white-space: pre;" direction="ltr">@did-connect/adapter-nextjs*</text></g><g stroke-linecap="round"><g transform="translate(858.6098807198664 366.9289376395087) rotate(0 73.89155796595992 32.19469652358916)"><path d="M0 0 C24.63 10.73, 123.15 53.66, 147.78 64.39 M0 0 C24.63 10.73, 123.15 53.66, 147.78 64.39" stroke="#000000" stroke-width="1" fill="none"></path></g><g transform="translate(858.6098807198664 366.9289376395087) rotate(0 73.89155796595992 32.19469652358916)"><path d="M117.84 62.54 C124.89 62.97, 131.95 63.41, 147.78 64.39 M117.84 62.54 C127.74 63.15, 137.63 63.76, 147.78 64.39" stroke="#000000" stroke-width="1" fill="none"></path></g><g transform="translate(858.6098807198664 366.9289376395087) rotate(0 73.89155796595992 32.19469652358916)"><path d="M126.04 43.72 C131.16 48.59, 136.28 53.46, 147.78 64.39 M126.04 43.72 C133.22 50.55, 140.41 57.38, 147.78 64.39" stroke="#000000" stroke-width="1" fill="none"></path></g></g><g stroke-linecap="round"><g transform="translate(858.1331089564733 331.3009294782364) rotate(0 75.73813302176336 -34.41636736656051)"><path d="M0 0 C25.25 -11.47, 126.23 -57.36, 151.48 -68.83 M0 0 C25.25 -11.47, 126.23 -57.36, 151.48 -68.83" stroke="#000000" stroke-width="1" fill="none"></path></g><g transform="translate(858.1331089564733 331.3009294782364) rotate(0 75.73813302176336 -34.41636736656051)"><path d="M130.06 -47.83 C136.53 -54.18, 143 -60.52, 151.48 -68.83 M130.06 -47.83 C137.11 -54.75, 144.17 -61.67, 151.48 -68.83" stroke="#000000" stroke-width="1" fill="none"></path></g><g transform="translate(858.1331089564733 331.3009294782364) rotate(0 75.73813302176336 -34.41636736656051)"><path d="M121.57 -66.51 C130.61 -67.21, 139.64 -67.91, 151.48 -68.83 M121.57 -66.51 C131.42 -67.28, 141.28 -68.04, 151.48 -68.83" stroke="#000000" stroke-width="1" fill="none"></path></g></g><g transform="translate(10 10) rotate(0 140.99999999999997 12)"><text x="0" y="19" font-family="Cascadia, Segoe UI Emoji" font-size="20px" fill="#000000" text-anchor="start" style="white-space: pre;" direction="ltr">DID Connect Package Arch</text></g></svg>