<svg width="239" height="42" viewBox="0 0 239 42" fill="none" xmlns="http://www.w3.org/2000/svg">
  <path d="M24.6042 2.26271L28.5234 0H42.79V41.8617H28.7913C28.6158 41.8617 28.4433 41.8155 28.2913 41.7277L13.1882 33.0079L13.1882 8.85374L15.0055 7.80451L18.2055 9.65203L16.3882 10.7013V31.1604L29.3808 38.6617H39.59V3.2H29.3808L27.8042 4.11023L24.6042 2.26271Z" fill="white" />
  <path fill-rule="evenodd" clip-rule="evenodd" d="M26.4018 31.1604V10.7013L13.4092 3.2H3.2V38.6617H13.4092L14.9906 37.7486L18.1906 39.5961L14.2666 41.8617H0V0H14.2666L29.6018 8.85374V33.0079L27.7893 34.0543L24.5893 32.2068L26.4018 31.1604Z" fill="white" />
  <path d="M138.44 27.6839C138.632 27.6839 138.797 27.7585 138.936 27.9079L140.28 29.3799C139.341 30.4892 138.195 31.3479 136.84 31.9559C135.496 32.5639 133.875 32.8679 131.976 32.8679C130.312 32.8679 128.803 32.5799 127.448 32.0039C126.104 31.4279 124.952 30.6225 123.992 29.5879C123.043 28.5532 122.307 27.3159 121.784 25.8759C121.261 24.4359 121 22.8519 121 21.1239C121 19.3959 121.272 17.8119 121.816 16.3719C122.371 14.9319 123.144 13.6945 124.136 12.6599C125.128 11.6252 126.312 10.8199 127.688 10.2439C129.075 9.66788 130.605 9.37988 132.28 9.37988C133.912 9.37988 135.363 9.64655 136.632 10.1799C137.901 10.7132 139.005 11.4225 139.944 12.3079L138.824 13.8919C138.749 14.0092 138.653 14.1052 138.536 14.1799C138.429 14.2545 138.285 14.2919 138.104 14.2919C137.901 14.2919 137.661 14.1905 137.384 13.9879C137.117 13.7852 136.76 13.5612 136.312 13.3159C135.875 13.0599 135.331 12.8305 134.68 12.6279C134.029 12.4252 133.219 12.3239 132.248 12.3239C131.107 12.3239 130.061 12.5265 129.112 12.9319C128.163 13.3265 127.341 13.9025 126.648 14.6599C125.965 15.4065 125.432 16.3292 125.048 17.4279C124.675 18.5159 124.488 19.7479 124.488 21.1239C124.488 22.5212 124.685 23.7639 125.08 24.8519C125.475 25.9399 126.019 26.8625 126.712 27.6199C127.405 28.3772 128.221 28.9532 129.16 29.3479C130.099 29.7425 131.112 29.9399 132.2 29.9399C132.861 29.9399 133.453 29.9025 133.976 29.8279C134.509 29.7425 134.995 29.6199 135.432 29.4599C135.88 29.2999 136.301 29.0972 136.696 28.8519C137.091 28.5959 137.48 28.2919 137.864 27.9399C137.949 27.8652 138.04 27.8065 138.136 27.7639C138.232 27.7106 138.333 27.6839 138.44 27.6839Z" fill="white" />
  <path d="M149.68 16.0999C150.875 16.0999 151.952 16.2972 152.912 16.6919C153.883 17.0759 154.704 17.6359 155.376 18.3719C156.059 19.0972 156.581 19.9772 156.944 21.0119C157.307 22.0359 157.488 23.1879 157.488 24.4679C157.488 25.7479 157.307 26.9052 156.944 27.9399C156.581 28.9745 156.059 29.8545 155.376 30.5799C154.704 31.3052 153.883 31.8652 152.912 32.2599C151.952 32.6439 150.875 32.8359 149.68 32.8359C148.475 32.8359 147.387 32.6439 146.416 32.2599C145.456 31.8652 144.635 31.3052 143.952 30.5799C143.269 29.8545 142.741 28.9745 142.368 27.9399C142.005 26.9052 141.824 25.7479 141.824 24.4679C141.824 23.1879 142.005 22.0359 142.368 21.0119C142.741 19.9772 143.269 19.0972 143.952 18.3719C144.635 17.6359 145.456 17.0759 146.416 16.6919C147.387 16.2972 148.475 16.0999 149.68 16.0999ZM149.68 30.4039C151.216 30.4039 152.363 29.8865 153.12 28.8519C153.877 27.8172 154.256 26.3612 154.256 24.4839C154.256 22.6065 153.877 21.1505 153.12 20.1159C152.363 19.0705 151.216 18.5479 149.68 18.5479C148.123 18.5479 146.96 19.0705 146.192 20.1159C145.435 21.1505 145.056 22.6065 145.056 24.4839C145.056 26.3612 145.435 27.8172 146.192 28.8519C146.96 29.8865 148.123 30.4039 149.68 30.4039Z" fill="white" />
  <path d="M163.899 18.6119C164.251 18.2386 164.619 17.8972 165.003 17.5879C165.387 17.2785 165.792 17.0172 166.219 16.8039C166.656 16.5799 167.12 16.4092 167.611 16.2919C168.112 16.1639 168.645 16.0999 169.211 16.0999C170.107 16.0999 170.891 16.2492 171.563 16.5479C172.245 16.8465 172.816 17.2679 173.275 17.8119C173.733 18.3452 174.08 18.9905 174.315 19.7479C174.549 20.5052 174.667 21.3425 174.667 22.2599V32.6119H171.531V22.2599C171.531 21.0972 171.264 20.1959 170.731 19.5559C170.197 18.9052 169.381 18.5799 168.283 18.5799C167.483 18.5799 166.731 18.7719 166.027 19.1559C165.333 19.5292 164.688 20.0412 164.091 20.6919V32.6119H160.971V16.3559H162.843C163.28 16.3559 163.552 16.5639 163.659 16.9799L163.899 18.6119Z" fill="white" />
  <path d="M181.805 18.6119C182.157 18.2386 182.525 17.8972 182.909 17.5879C183.293 17.2785 183.698 17.0172 184.125 16.8039C184.562 16.5799 185.026 16.4092 185.517 16.2919C186.018 16.1639 186.552 16.0999 187.117 16.0999C188.013 16.0999 188.797 16.2492 189.469 16.5479C190.152 16.8465 190.722 17.2679 191.181 17.8119C191.64 18.3452 191.986 18.9905 192.221 19.7479C192.456 20.5052 192.573 21.3425 192.573 22.2599V32.6119H189.437V22.2599C189.437 21.0972 189.17 20.1959 188.637 19.5559C188.104 18.9052 187.288 18.5799 186.189 18.5799C185.389 18.5799 184.637 18.7719 183.933 19.1559C183.24 19.5292 182.594 20.0412 181.997 20.6919V32.6119H178.877V16.3559H180.749C181.186 16.3559 181.458 16.5639 181.565 16.9799L181.805 18.6119Z" fill="white" />
  <path d="M207.551 22.6759C207.551 22.0572 207.461 21.4865 207.279 20.9639C207.109 20.4412 206.853 19.9879 206.511 19.6039C206.17 19.2199 205.754 18.9212 205.263 18.7079C204.773 18.4945 204.207 18.3879 203.567 18.3879C202.255 18.3879 201.221 18.7665 200.463 19.5239C199.717 20.2812 199.242 21.3319 199.039 22.6759H207.551ZM210.127 30.2919C209.743 30.7399 209.301 31.1292 208.799 31.4599C208.298 31.7799 207.765 32.0412 207.199 32.2439C206.634 32.4466 206.047 32.5959 205.439 32.6919C204.842 32.7879 204.25 32.8359 203.663 32.8359C202.543 32.8359 201.503 32.6492 200.543 32.2759C199.594 31.8919 198.767 31.3372 198.063 30.6119C197.37 29.8759 196.826 28.9692 196.431 27.8919C196.047 26.8039 195.855 25.5559 195.855 24.1479C195.855 23.0172 196.031 21.9665 196.383 20.9959C196.735 20.0145 197.237 19.1612 197.887 18.4359C198.549 17.7105 199.354 17.1399 200.303 16.7239C201.253 16.3079 202.319 16.0999 203.503 16.0999C204.495 16.0999 205.407 16.2652 206.239 16.5959C207.082 16.9159 207.807 17.3852 208.415 18.0039C209.023 18.6225 209.498 19.3852 209.839 20.2919C210.191 21.1986 210.367 22.2332 210.367 23.3959C210.367 23.8759 210.314 24.2012 210.207 24.3719C210.101 24.5319 209.903 24.6119 209.615 24.6119H198.959C198.991 25.5826 199.13 26.4305 199.375 27.1559C199.621 27.8705 199.957 28.4679 200.383 28.9479C200.821 29.4279 201.338 29.7852 201.935 30.0199C202.533 30.2546 203.199 30.3719 203.935 30.3719C204.629 30.3719 205.226 30.2919 205.727 30.1319C206.239 29.9719 206.677 29.8012 207.039 29.6199C207.413 29.4279 207.722 29.2519 207.967 29.0919C208.223 28.9319 208.447 28.8519 208.639 28.8519C208.895 28.8519 209.093 28.9479 209.231 29.1399L210.127 30.2919Z" fill="white" />
  <path d="M225.113 19.3959C225.017 19.5132 224.921 19.6092 224.825 19.6839C224.739 19.7479 224.611 19.7799 224.441 19.7799C224.27 19.7799 224.089 19.7159 223.897 19.5879C223.715 19.4492 223.481 19.3052 223.193 19.1559C222.915 18.9959 222.574 18.8519 222.169 18.7239C221.774 18.5852 221.283 18.5159 220.697 18.5159C219.929 18.5159 219.251 18.6545 218.665 18.9319C218.078 19.2092 217.587 19.6039 217.193 20.1159C216.809 20.6279 216.515 21.2519 216.313 21.9879C216.11 22.7239 216.009 23.5505 216.009 24.4679C216.009 25.4172 216.115 26.2652 216.329 27.0119C216.542 27.7479 216.846 28.3719 217.241 28.8839C217.635 29.3852 218.115 29.7692 218.681 30.0359C219.246 30.2919 219.875 30.4199 220.569 30.4199C221.241 30.4199 221.795 30.3399 222.233 30.1799C222.67 30.0092 223.033 29.8279 223.321 29.6359C223.609 29.4439 223.849 29.2679 224.041 29.1079C224.233 28.9372 224.43 28.8519 224.633 28.8519C224.889 28.8519 225.086 28.9479 225.225 29.1399L226.121 30.2919C225.747 30.7505 225.326 31.1399 224.857 31.4599C224.398 31.7799 223.907 32.0412 223.385 32.2439C222.862 32.4466 222.313 32.5959 221.737 32.6919C221.171 32.7879 220.595 32.8359 220.009 32.8359C218.995 32.8359 218.046 32.6492 217.161 32.2759C216.286 31.9025 215.523 31.3585 214.873 30.6439C214.233 29.9292 213.726 29.0546 213.353 28.0199C212.979 26.9746 212.793 25.7905 212.793 24.4679C212.793 23.2625 212.958 22.1479 213.289 21.1239C213.63 20.0999 214.126 19.2199 214.777 18.4839C215.438 17.7372 216.249 17.1559 217.209 16.7399C218.169 16.3132 219.267 16.0999 220.505 16.0999C221.667 16.0999 222.691 16.2865 223.577 16.6599C224.462 17.0332 225.251 17.5612 225.945 18.2439L225.113 19.3959Z" fill="white" />
  <path d="M234.121 32.8679C232.809 32.8679 231.796 32.4999 231.081 31.7639C230.377 31.0279 230.025 29.9772 230.025 28.6119V18.8839H228.137C227.956 18.8839 227.801 18.8305 227.673 18.7239C227.556 18.6065 227.497 18.4359 227.497 18.2119V16.9479L230.137 16.5799L230.841 11.7319C230.884 11.5505 230.964 11.4119 231.081 11.3159C231.209 11.2092 231.369 11.1559 231.561 11.1559H233.145V16.6119H237.753V18.8839H233.145V28.4039C233.145 29.0439 233.3 29.5239 233.609 29.8439C233.929 30.1532 234.335 30.3079 234.825 30.3079C235.113 30.3079 235.359 30.2705 235.561 30.1959C235.775 30.1212 235.956 30.0412 236.105 29.9559C236.255 29.8599 236.383 29.7745 236.489 29.6999C236.596 29.6252 236.692 29.5879 236.777 29.5879C236.884 29.5879 236.964 29.6145 237.017 29.6679C237.081 29.7106 237.145 29.7852 237.209 29.8919L238.137 31.3959C237.625 31.8652 237.017 32.2279 236.313 32.4839C235.609 32.7399 234.879 32.8679 234.121 32.8679Z" fill="white" />
  <path fill-rule="evenodd" clip-rule="evenodd" d="M57.8154 33.2842V9H70.6597C73.9281 9.22427 76.4828 11.9486 76.4828 15.2433V27.026C76.4828 30.4823 73.6809 33.2842 70.2246 33.2842H57.8154ZM84.5586 9H81.2237V33.3211H84.5586V9ZM61.1503 29.9493V12.32H70.2246C71.8391 12.32 73.1479 13.6288 73.1479 15.2433V27.026C73.1479 28.6405 71.8391 29.9493 70.2246 29.9493H61.1503ZM89.2432 9V33.2842H101.652C105.109 33.2842 107.911 30.4823 107.911 27.026V15.2433C107.911 11.9486 105.356 9.22427 102.087 9H89.2432ZM112.155 14.6355H115.883V18.3639H112.155V14.6355ZM115.883 23.9572H112.155V27.6856H115.883V23.9572ZM92.5781 12.32V29.9493H101.652C103.267 29.9493 104.576 28.6405 104.576 27.026V15.2433C104.576 13.6288 103.267 12.32 101.652 12.32H92.5781Z" fill="white" />
</svg>
