<svg width="183" height="32" viewBox="0 0 183 32" fill="none" xmlns="http://www.w3.org/2000/svg">
  <g clip-path="url(#clip0_897_3107)">
    <path d="M18.746 1.72397L21.732 0H32.6018V31.8946H21.9999C21.8244 31.8946 21.652 31.8484 21.4999 31.7606L10.0481 25.1489L10.0481 6.74571L11.4327 5.94629L13.8708 7.35393L12.4862 8.15334V23.7413L22.3853 29.4565H30.1637V2.4381H22.3853L21.1841 3.1316L18.746 1.72397Z" fill="#6BBDFE" />
    <path fill-rule="evenodd" clip-rule="evenodd" d="M20.1156 23.7413V8.15334L10.2165 2.4381H2.4381V29.4565H10.2165L11.4214 28.7609L13.8595 30.1685L10.8698 31.8946H0V0H10.8698L22.5537 6.74571V25.1489L21.1728 25.9462L18.7347 24.5385L20.1156 23.7413Z" fill="#4598FA" />
    <path d="M105.478 21.0924C105.624 21.0924 105.75 21.1493 105.856 21.2631L106.88 22.3846C106.165 23.2298 105.291 23.884 104.259 24.3472C103.235 24.8105 102 25.0421 100.553 25.0421C99.2853 25.0421 98.1353 24.8227 97.1032 24.3838C96.0792 23.945 95.2015 23.3314 94.47 22.5431C93.7467 21.7547 93.186 20.812 92.7878 19.7149C92.3895 18.6177 92.1904 17.4109 92.1904 16.0943C92.1904 14.7777 92.3977 13.5709 92.8121 12.4737C93.2347 11.3766 93.824 10.4338 94.5798 9.64553C95.3356 8.85721 96.2377 8.24363 97.286 7.80477C98.3426 7.36591 99.5088 7.14648 100.785 7.14648C102.028 7.14648 103.133 7.34966 104.101 7.75601C105.068 8.16236 105.909 8.7028 106.624 9.37734L105.771 10.5842C105.714 10.6736 105.641 10.7467 105.551 10.8036C105.47 10.8605 105.36 10.889 105.222 10.889C105.068 10.889 104.885 10.8118 104.673 10.6573C104.47 10.5029 104.198 10.3323 103.857 10.1453C103.524 9.95029 103.109 9.77556 102.613 9.62115C102.118 9.46674 101.5 9.38953 100.76 9.38953C99.8907 9.38953 99.0943 9.54394 98.371 9.85277C97.6477 10.1535 97.0219 10.5923 96.4937 11.1693C95.9735 11.7382 95.5672 12.4412 95.2746 13.2783C94.9902 14.1072 94.848 15.0459 94.848 16.0943C94.848 17.1589 94.9983 18.1057 95.299 18.9347C95.5997 19.7636 96.0142 20.4666 96.5424 21.0436C97.0707 21.6206 97.6924 22.0595 98.4076 22.3602C99.1227 22.6609 99.8948 22.8112 100.724 22.8112C101.228 22.8112 101.679 22.7828 102.077 22.7259C102.483 22.6609 102.853 22.5674 103.186 22.4455C103.528 22.3236 103.849 22.1692 104.149 21.9823C104.45 21.7872 104.747 21.5556 105.039 21.2874C105.104 21.2305 105.173 21.1858 105.246 21.1533C105.32 21.1127 105.397 21.0924 105.478 21.0924Z" fill="#4598FA" />
    <path d="M114.042 12.2665C114.952 12.2665 115.773 12.4168 116.504 12.7175C117.244 13.0101 117.87 13.4368 118.382 13.9975C118.902 14.5502 119.3 15.2206 119.576 16.009C119.853 16.7892 119.991 17.6669 119.991 18.6421C119.991 19.6173 119.853 20.4991 119.576 21.2874C119.3 22.0758 118.902 22.7462 118.382 23.2989C117.87 23.8515 117.244 24.2782 116.504 24.5789C115.773 24.8714 114.952 25.0177 114.042 25.0177C113.124 25.0177 112.295 24.8714 111.555 24.5789C110.824 24.2782 110.198 23.8515 109.678 23.2989C109.158 22.7462 108.755 22.0758 108.471 21.2874C108.194 20.4991 108.056 19.6173 108.056 18.6421C108.056 17.6669 108.194 16.7892 108.471 16.009C108.755 15.2206 109.158 14.5502 109.678 13.9975C110.198 13.4368 110.824 13.0101 111.555 12.7175C112.295 12.4168 113.124 12.2665 114.042 12.2665ZM114.042 23.1648C115.212 23.1648 116.086 22.7706 116.663 21.9823C117.24 21.194 117.528 20.0846 117.528 18.6543C117.528 17.2239 117.24 16.1146 116.663 15.3263C116.086 14.5298 115.212 14.1316 114.042 14.1316C112.855 14.1316 111.969 14.5298 111.384 15.3263C110.807 16.1146 110.519 17.2239 110.519 18.6543C110.519 20.0846 110.807 21.194 111.384 21.9823C111.969 22.7706 112.855 23.1648 114.042 23.1648Z" fill="#4598FA" />
    <path d="M124.875 14.1804C125.143 13.8959 125.424 13.6359 125.716 13.4002C126.009 13.1645 126.318 12.9654 126.643 12.8029C126.976 12.6322 127.33 12.5022 127.703 12.4128C128.085 12.3152 128.492 12.2665 128.922 12.2665C129.605 12.2665 130.202 12.3803 130.714 12.6078C131.235 12.8354 131.669 13.1564 132.019 13.5709C132.368 13.9772 132.632 14.4689 132.811 15.0459C132.99 15.6229 133.079 16.2609 133.079 16.9598V24.8471H130.69V16.9598C130.69 16.074 130.487 15.3872 130.081 14.8996C129.674 14.4039 129.052 14.156 128.215 14.156C127.606 14.156 127.033 14.3023 126.497 14.5949C125.968 14.8793 125.477 15.2694 125.021 15.7651V24.8471H122.644V12.4615H124.071C124.404 12.4615 124.611 12.62 124.692 12.937L124.875 14.1804Z" fill="#4598FA" />
    <path d="M138.518 14.1804C138.786 13.8959 139.067 13.6359 139.359 13.4002C139.652 13.1645 139.961 12.9654 140.286 12.8029C140.619 12.6322 140.972 12.5022 141.346 12.4128C141.728 12.3152 142.135 12.2665 142.565 12.2665C143.248 12.2665 143.845 12.3803 144.357 12.6078C144.877 12.8354 145.312 13.1564 145.662 13.5709C146.011 13.9772 146.275 14.4689 146.454 15.0459C146.633 15.6229 146.722 16.2609 146.722 16.9598V24.8471H144.333V16.9598C144.333 16.074 144.13 15.3872 143.723 14.8996C143.317 14.4039 142.695 14.156 141.858 14.156C141.249 14.156 140.676 14.3023 140.139 14.5949C139.611 14.8793 139.119 15.2694 138.664 15.7651V24.8471H136.287V12.4615H137.713C138.047 12.4615 138.254 12.62 138.335 12.937L138.518 14.1804Z" fill="#4598FA" />
    <path d="M158.134 17.2768C158.134 16.8054 158.065 16.3706 157.927 15.9724C157.797 15.5742 157.602 15.2288 157.342 14.9362C157.082 14.6436 156.765 14.4161 156.391 14.2535C156.017 14.091 155.586 14.0097 155.099 14.0097C154.099 14.0097 153.311 14.2982 152.734 14.8752C152.165 15.4523 151.803 16.2528 151.649 17.2768H158.134ZM160.097 23.0794C159.804 23.4208 159.467 23.7174 159.085 23.9693C158.703 24.2132 158.297 24.4123 157.866 24.5667C157.435 24.7211 156.988 24.8349 156.525 24.908C156.07 24.9811 155.619 25.0177 155.172 25.0177C154.319 25.0177 153.526 24.8755 152.795 24.5911C152.072 24.2985 151.442 23.8759 150.905 23.3232C150.377 22.7625 149.963 22.0717 149.662 21.2509C149.369 20.4219 149.223 19.4711 149.223 18.3983C149.223 17.5368 149.357 16.7363 149.625 15.9968C149.893 15.2491 150.275 14.5989 150.771 14.0463C151.275 13.4937 151.889 13.0589 152.612 12.7419C153.335 12.425 154.148 12.2665 155.05 12.2665C155.806 12.2665 156.501 12.3925 157.135 12.6444C157.777 12.8882 158.329 13.2458 158.793 13.7171C159.256 14.1885 159.617 14.7696 159.877 15.4604C160.146 16.1512 160.28 16.9395 160.28 17.8253C160.28 18.1911 160.239 18.4389 160.158 18.569C160.077 18.6909 159.926 18.7518 159.707 18.7518H151.588C151.612 19.4914 151.718 20.1375 151.905 20.6901C152.092 21.2346 152.348 21.6897 152.673 22.0554C153.006 22.4212 153.4 22.6934 153.855 22.8722C154.31 23.051 154.818 23.1404 155.379 23.1404C155.907 23.1404 156.363 23.0794 156.745 22.9575C157.135 22.8356 157.468 22.7056 157.744 22.5674C158.029 22.4212 158.264 22.2871 158.451 22.1651C158.646 22.0432 158.817 21.9823 158.963 21.9823C159.158 21.9823 159.309 22.0554 159.414 22.2017L160.097 23.0794Z" fill="#4598FA" />
    <path d="M171.514 14.7777C171.441 14.8671 171.368 14.9403 171.295 14.9971C171.23 15.0459 171.132 15.0703 171.002 15.0703C170.872 15.0703 170.734 15.0215 170.588 14.924C170.45 14.8184 170.271 14.7086 170.052 14.5949C169.84 14.473 169.58 14.3632 169.271 14.2657C168.971 14.1601 168.597 14.1072 168.15 14.1072C167.565 14.1072 167.049 14.2129 166.602 14.4242C166.155 14.6355 165.781 14.9362 165.48 15.3263C165.188 15.7164 164.964 16.1918 164.81 16.7526C164.655 17.3133 164.578 17.9432 164.578 18.6421C164.578 19.3654 164.659 20.0115 164.822 20.5804C164.984 21.1412 165.216 21.6166 165.517 22.0067C165.817 22.3886 166.183 22.6812 166.614 22.8844C167.045 23.0794 167.524 23.177 168.052 23.177C168.564 23.177 168.987 23.116 169.32 22.9941C169.653 22.8641 169.93 22.7259 170.149 22.5796C170.369 22.4333 170.551 22.2992 170.698 22.1773C170.844 22.0473 170.994 21.9823 171.149 21.9823C171.344 21.9823 171.494 22.0554 171.6 22.2017L172.282 23.0794C171.998 23.4289 171.677 23.7255 171.319 23.9693C170.97 24.2132 170.596 24.4123 170.198 24.5667C169.8 24.7211 169.381 24.8349 168.942 24.908C168.512 24.9811 168.073 25.0177 167.626 25.0177C166.854 25.0177 166.13 24.8755 165.456 24.5911C164.789 24.3066 164.208 23.8921 163.713 23.3476C163.225 22.8031 162.839 22.1367 162.554 21.3484C162.27 20.5519 162.128 19.6498 162.128 18.6421C162.128 17.7238 162.254 16.8745 162.506 16.0943C162.766 15.3141 163.144 14.6436 163.639 14.0829C164.143 13.514 164.761 13.0711 165.492 12.7541C166.224 12.429 167.061 12.2665 168.004 12.2665C168.889 12.2665 169.67 12.4087 170.344 12.6932C171.019 12.9776 171.62 13.3799 172.148 13.9L171.514 14.7777Z" fill="#4598FA" />
    <path d="M178.378 25.0421C177.378 25.0421 176.606 24.7617 176.062 24.201C175.525 23.6402 175.257 22.8397 175.257 21.7994V14.3876H173.819C173.681 14.3876 173.563 14.347 173.465 14.2657C173.376 14.1763 173.331 14.0463 173.331 13.8756V12.9126L175.343 12.6322L175.879 8.93848C175.912 8.80033 175.972 8.69467 176.062 8.62153C176.159 8.54026 176.281 8.49963 176.428 8.49963H177.634V12.6566H181.145V14.3876H177.634V21.641C177.634 22.1286 177.752 22.4943 177.988 22.7381C178.232 22.9738 178.541 23.0916 178.914 23.0916C179.134 23.0916 179.321 23.0632 179.475 23.0063C179.638 22.9494 179.776 22.8885 179.89 22.8234C180.003 22.7503 180.101 22.6853 180.182 22.6284C180.264 22.5715 180.337 22.5431 180.402 22.5431C180.483 22.5431 180.544 22.5634 180.585 22.604C180.633 22.6365 180.682 22.6934 180.731 22.7747L181.438 23.9206C181.048 24.2782 180.585 24.5545 180.048 24.7495C179.512 24.9446 178.955 25.0421 178.378 25.0421Z" fill="#4598FA" />
    <path fill-rule="evenodd" clip-rule="evenodd" d="M44.0498 25.3592V6.85693H53.8359C56.3262 7.02781 58.2725 9.10347 58.2725 11.6137V20.591C58.2725 23.2244 56.1378 25.3592 53.5044 25.3592H44.0498ZM64.4255 6.85693H61.8846V25.3873H64.4255V6.85693ZM46.5907 22.8183V9.38649H53.5044C54.7345 9.38649 55.7317 10.3837 55.7317 11.6137V20.591C55.7317 21.8211 54.7345 22.8183 53.5044 22.8183H46.5907ZM67.9948 6.85693V25.3592H77.4494C80.0828 25.3592 82.2175 23.2244 82.2175 20.591V11.6137C82.2175 9.10347 80.2712 7.02781 77.7809 6.85693H67.9948ZM85.4511 11.1506H88.2918V13.9913H85.4511V11.1506ZM88.2918 18.2529H85.4511V21.0936H88.2918V18.2529ZM70.5357 9.38649V22.8183H77.4494C78.6795 22.8183 79.6767 21.8211 79.6767 20.591V11.6137C79.6767 10.3837 78.6795 9.38649 77.4494 9.38649H70.5357Z" fill="#363844" />
  </g>
  <defs>
    <clipPath id="clip0_897_3107">
      <rect width="182.095" height="32" fill="white" />
    </clipPath>
  </defs>
</svg>
