<svg version="1.1" xmlns="http://www.w3.org/2000/svg" viewBox="0 0 874.5547485351562 952.15373035835"
  width="874.5547485351562" height="952.15373035835">
  <rect x="0" y="0" width="874.5547485351562" height="952.15373035835" fill="#ffffff"></rect>
  <g stroke-linecap="round" transform="translate(321.192138671875 10) rotate(0 122.83203125 38.53160858154297)">
    <path
      d="M0 0 C0 0, 0 0, 0 0 M0 0 C0 0, 0 0, 0 0 M-0.84 5.9 C1.65 4.42, 2.25 2.84, 4.87 0.98 M-0.49 6.05 C2.13 3.89, 4.1 1.83, 5.38 0.55 M1.03 11.59 C3.87 7.8, 9.76 2.33, 10.01 -0.51 M0.05 11.83 C2 9.9, 5.6 7.22, 9.98 -0.76 M1.78 18.74 C3.42 14.29, 7.33 6.69, 15.98 0.72 M-0.51 17.6 C4.79 12.43, 9.03 8.46, 15.73 -0.3 M-0.42 26.02 C7.84 16.45, 14.96 6.57, 21.83 1.8 M-0.21 23.5 C5.21 19.29, 8.65 13.87, 20.32 -0.78 M1.59 31.67 C8.53 20.15, 18.74 8.12, 27.35 -1.19 M-0.1 30.81 C4.48 24.15, 11.54 16.7, 26.44 -0.1 M-1.02 38.61 C6.57 27.42, 17.12 20, 33.29 -1.18 M0.39 36.7 C9.01 28.69, 15.93 17.79, 31.72 -0.93 M-0.4 41.14 C9.89 32.11, 21.4 19.56, 36.44 0.34 M0.72 41.62 C8.28 32.82, 16.23 23.38, 37.64 -0.69 M-1.48 49.78 C12.58 33.49, 26.89 18.94, 41.3 -0.09 M-0.4 49.8 C15.79 32.11, 29.77 16.08, 41.98 -0.32 M1 54.52 C14.92 36.9, 28.54 23.04, 47.25 0.64 M0.82 55.18 C10.48 42.99, 21.48 30.31, 47.94 -0.04 M1.69 61.46 C18.63 41.68, 33.6 20.66, 52.27 -1.26 M0.32 61.67 C20.65 36.82, 42.04 14.59, 52.62 -0.18 M-0.33 68.06 C23.94 40.15, 47.03 15.41, 60.1 0.16 M0.03 67.07 C17.92 46.85, 37.61 24.08, 58.05 1.09 M0.93 71.99 C21.57 51.89, 38.63 27.01, 63.96 -0.92 M0.2 73.57 C19.05 48.87, 39.63 27.73, 63.75 -1.09 M0.12 76.43 C28.23 48.59, 53.38 18.06, 69.69 -1.47 M2.02 77.74 C14.79 62.58, 28.74 46.57, 69.74 0.06 M4.95 80.1 C26.51 53.03, 46.84 29.22, 75.48 0.9 M5.85 78.18 C30.51 49.69, 55.22 20.8, 75.07 0.05 M12.78 77.15 C27.76 59.81, 42.53 45.43, 79.03 0.54 M12.63 78.07 C28.8 59.09, 44.81 38.25, 78.86 -0.56 M15.59 77.93 C39.11 53.42, 64.9 24.7, 85.26 -1.7 M16.74 77.6 C30.51 63.24, 45.15 47.04, 84.83 -1.01 M23.05 76.77 C47.65 49.11, 72.99 19.79, 89.48 -1.89 M21.88 78.44 C49 47.49, 74.38 15.82, 90.34 -0.04 M25.75 76.59 C46.86 57.53, 65.39 36.21, 97.1 1.55 M28.15 77.93 C40.55 61.07, 56.12 45.6, 94.89 -0.8 M34.84 79.44 C57.47 53.1, 79.31 24.76, 98.77 0.36 M32.55 78.36 C47.11 60.96, 62.82 43.81, 101.19 -0.48 M37.27 79.05 C57.57 52.18, 81.24 29.4, 106.12 -0.93 M38.03 79.13 C62.72 47.87, 89.36 18.94, 105.66 -1.22 M43.41 79.44 C63.2 55.01, 84.07 26.78, 110.94 -0.48 M44 78.01 C63.03 53.86, 84.52 31.2, 111.49 0.19 M50.32 79.44 C71.86 50.71, 99.61 22.56, 116.16 0.19 M49.39 77.33 C62.94 61.16, 76.35 46.91, 116.49 0.26 M53.36 79.24 C69.99 55.58, 90.24 35.54, 122.39 1.01 M55.16 77.23 C74.64 56.45, 92.3 33.89, 121.41 -0.77 M57.42 77.02 C76.29 57.67, 96.48 38.6, 128.33 2.15 M59.35 77.84 C74.07 60.1, 90.81 41.25, 127.26 0.6 M64.62 79.44 C86.9 48.8, 111.77 24.8, 131.86 1.38 M65.56 78.54 C87.84 51.98, 110.84 23.21, 132.19 0.04 M69.45 78.25 C90.52 55.56, 112.25 30.54, 139.15 0.59 M70.07 78.14 C91.97 54.12, 111.97 30.47, 137.49 0.68 M74.5 76.82 C87.94 61.74, 103.27 42.65, 142.44 -1.64 M76.29 78.13 C99.7 48.92, 125.02 20.05, 143.15 -0.77 M81.61 78.72 C104.58 53.73, 125.01 27.4, 149.13 0.54 M79.82 78.89 C101.95 53.59, 123.42 30.91, 147.9 -0.7 M86.96 79.04 C110.27 49.89, 134.36 21.57, 155.56 0.81 M86.36 77.63 C111.9 48.32, 139.35 17.09, 154.7 -0.46 M91.47 77.17 C111.91 56.51, 129.16 35.66, 160.12 -0.77 M91.94 78.9 C116.1 47.8, 142.46 17.71, 158.81 0.93 M97.3 79.67 C118.24 52.77, 141.83 27.22, 164.99 -1.21 M96.33 78.05 C117.72 54.25, 137.67 31.81, 165.3 -1.08 M100.9 77.52 C117.54 60.73, 130.33 45.05, 169.3 0 M101.84 78.18 C125.98 50.98, 149.5 23.17, 169.1 0.72 M106.18 76.72 C131.46 52.15, 156.54 22.39, 174.84 1.46 M107.38 77.37 C132.66 49.78, 159.3 19.51, 174.51 -0.53 M114.17 78.82 C129.87 55.5, 146.49 36.07, 179.23 -1.62 M112.01 78.89 C135.28 50.95, 158 25.04, 179.25 -0.52 M116.26 79.56 C137.9 54.89, 158.64 29.1, 185.59 -0.82 M116.92 78.45 C141.7 51.34, 164.01 23.46, 185.97 0.46 M123.85 77.31 C145.91 54.85, 164.78 28, 191.77 0.04 M123.02 78.37 C139.58 58.99, 156.45 39.26, 190.3 0.7 M129.55 79.74 C147.14 53.08, 169.07 29.26, 196.02 1.44 M128.92 78.84 C149.26 52.31, 171.49 25.55, 196.38 -0.66 M132.87 76.34 C154.02 53.1, 176.66 30.88, 202.17 -1.21 M134.52 78.13 C156.78 51.26, 180.64 24.42, 200.89 -0.45 M137.4 76.97 C162.24 51.37, 184.94 23.58, 205.3 -1.09 M138.96 77.78 C156.14 57.26, 176.31 35.76, 206.55 -1.26 M144.5 76.45 C167.76 49.06, 190.4 21.99, 212.98 -1.36 M144.23 76.85 C164.54 55.08, 186.19 32.18, 212.2 -0.15 M150.5 77.11 C165.42 58.99, 182.45 39.44, 218.91 1.39 M149.17 79.15 C173.36 52.56, 196.11 25.31, 218.32 -0.55 M156.37 77.34 C169.89 60.92, 181.39 43.57, 224.12 -0.28 M154.97 77.4 C173.27 56.52, 193.92 33.16, 223.03 -0.9 M160.9 78.18 C182.06 49.39, 208.57 23.58, 226.68 -0.14 M159.27 78.52 C182.67 54.19, 204.1 27.59, 227.65 -0.57 M166.43 75.84 C192.03 46.05, 218.06 17.17, 234.85 0.32 M165.62 77.8 C186.36 51.69, 208.81 28.77, 232.73 -0.52 M171.98 76.34 C197.16 50.93, 222.24 19.41, 240.14 1.19 M171.56 78.13 C196.98 47.32, 224.91 17.17, 238.91 -0.42 M174.99 75.96 C195.39 55.4, 214.28 33.67, 245.77 -1.09 M176.13 78.24 C195.86 54.1, 216.37 30.75, 244.24 0.85 M180.46 79.92 C207.17 50.22, 232.12 19.16, 247.82 0.67 M181.91 77.89 C206.65 48.33, 231.72 18.2, 247.2 1.2 M186.69 78.85 C198.14 59.96, 213.07 46.27, 246.27 7.64 M186.55 78.1 C208.71 52.35, 232.71 24.43, 248.52 7.26 M190.41 79.41 C203.43 64.99, 212.59 53.47, 248.05 14.54 M192.78 78.38 C208.95 58.29, 226.99 37.67, 248.16 13.58 M195.87 77.58 C215.41 53.57, 237.07 33.94, 247.6 21 M197.33 77.67 C207.86 67.08, 217.33 53.66, 246.63 20.64 M203.25 77.46 C213.56 65.83, 219.75 54.85, 249.23 27.84 M202.2 77.85 C215.37 64.73, 225.91 50.97, 247.25 26.81 M207.18 80.11 C220.32 60.42, 236.96 45.21, 247.63 31.9 M206.99 78.17 C216.8 67.67, 227.24 56.99, 247.48 31.82 M211.73 78.85 C224.13 63.2, 237.56 47.7, 248.9 39.31 M212.78 77.23 C223.05 67.46, 231.03 57.2, 247.79 37.72 M217.64 79.83 C226.81 69.38, 234.42 57.51, 247.7 44.15 M217.14 79.22 C226.15 68.69, 235.01 59.87, 247.68 44.09 M221.96 76.55 C233.98 69.82, 241.32 60.46, 248.32 49.62 M224.7 77.12 C227.54 73.08, 233.68 66.65, 246.56 51.05 M229.27 78.5 C236.44 68.27, 242.18 61.2, 249.12 54.99 M228.14 78.9 C235.46 71.88, 240.69 64.4, 247.05 56.66 M235.37 77.66 C238.15 75.62, 239.55 70.73, 249.03 64.32 M234.74 78.78 C238.55 71.8, 244.09 67.08, 247.34 63.46 M238.77 77.48 C242.5 76.17, 243.08 74, 247.03 69.33 M239.4 77.71 C241.47 75.09, 244.1 72.28, 247.32 68.41"
      stroke="#fa5252" stroke-width="0.5" fill="none"></path>
    <path
      d="M0.27 0.58 C68.85 -0.2, 141.73 -1.43, 245.28 0.92 M0.28 -0.6 C85.71 -0.18, 171.88 -0.55, 245.76 -0.09 M243.89 -0.39 C246.93 21.84, 246 44.13, 245.39 77.96 M246.64 -0.06 C245.79 19.78, 245.23 38.49, 246.5 77.13 M244.46 78.67 C161.11 74.66, 74.94 76.43, 1.17 78 M246.15 76.78 C185.46 77.28, 124.62 78.22, 0.18 76.9 M-0.94 76.54 C-1.39 48.23, -2.52 15.5, 1.81 -0.99 M0.61 76.5 C-0.26 57.17, -0.16 37.78, -0.64 0.22"
      stroke="#5f3dc4" stroke-width="1" fill="none"></path>
  </g>
  <g transform="translate(345.4917449951172 35.79725646972656) rotate(0 100 12)"><text x="0" y="19"
      font-family="Cascadia, Segoe UI Emoji" font-size="20px" fill="#5f3dc4" text-anchor="start"
      style="white-space: pre;" direction="ltr">DID Connect Relay</text></g>
  <g stroke-linecap="round"
    transform="translate(618.8906860351562 414.4400100708008) rotate(0 122.83203125 38.53160858154297)">
    <path
      d="M1.43 -0.36 C62.6 -0.91, 125.16 1.6, 246.62 -1.48 M0.62 0.62 C64.46 1.82, 129.83 1.67, 245.11 0.35 M244.71 -1.22 C245.35 22.63, 243.53 41.78, 245.1 78.83 M245.94 -0.54 C245.14 30.18, 245.03 59.52, 246.03 77.04 M245.86 76.85 C166.08 75.96, 84.86 77.96, 0.91 78.09 M245.96 77.42 C188.99 76.59, 131.93 76.35, 0.69 77.27 M-1.74 76.18 C-1.08 50.91, -0.43 20.71, 0.63 1.42 M0.62 76.53 C0.55 54.77, 0.41 31.25, -0.04 0.35"
      stroke="#862e9c" stroke-width="1" fill="none"></path>
  </g>
  <g transform="translate(714.7820281982422 441.13390350341797) rotate(0 24 12)"><text x="0" y="19"
      font-family="Cascadia, Segoe UI Emoji" font-size="20px" fill="#862e9c" text-anchor="start"
      style="white-space: pre;" direction="ltr">DApp</text></g>
  <g stroke-linecap="round" transform="translate(10 422.5748977661133) rotate(0 122.83203125 38.53160858154297)">
    <path
      d="M0 0 C0 0, 0 0, 0 0 M0 0 C0 0, 0 0, 0 0 M-0.65 6.7 C0.86 3.94, 4.08 2.89, 5.34 0.86 M-0.2 6.07 C1.62 4.91, 2.63 3.13, 4.93 0.6 M-0.72 12.29 C5 7.25, 7.39 3.57, 9.36 -1.03 M-0.1 12.59 C3.09 8.7, 6.92 4.94, 9.88 -0.68 M-1.89 18.71 C6.25 12.9, 10.81 7.46, 14.17 2.22 M-0.38 18.49 C3.77 14.38, 6.97 11.08, 14.63 -0.02 M0.62 25.43 C7.83 16.46, 13.77 11.49, 20.27 0.86 M0.18 23.1 C7.75 15.34, 17.48 4.13, 21.31 -0.76 M-0.23 29.72 C8.71 21.73, 13.56 14.95, 24.8 -1.56 M0.52 30.29 C8.92 20.23, 19.69 8.49, 27.04 1.25 M-1.76 36.12 C7.82 29.57, 13.39 17.97, 31.26 0.4 M0.65 36.23 C12.68 21.74, 24.61 7.44, 31.25 -0.06 M0.65 43.31 C13.64 30.69, 23.49 17.13, 36.46 -1.62 M0.85 43 C14.26 26.17, 28.19 11.79, 36.59 1.16 M0.07 48.91 C7.99 38.44, 18.74 27.46, 42.14 0.76 M0.02 49.07 C15.53 30.21, 30.51 13.8, 43.43 -0.15 M1.01 52.79 C13.69 42.08, 23.1 25.68, 46.21 1.28 M-0.51 55.28 C14.77 38.98, 28.5 24.03, 46.88 0.29 M-1.36 61.67 C13.36 44.98, 28.25 30.31, 54.39 1.52 M0.15 61.02 C12.27 45.48, 25.42 30.97, 53.34 -0.73 M-2.2 68.37 C23.89 41.8, 47.08 14.88, 59.44 -0.46 M0.22 68.24 C21.54 41.38, 44.67 15.88, 57.55 0.38 M-0.53 72.67 C20.78 47.83, 43.69 22.29, 64.83 0.41 M-0.36 73.88 C16.59 52.91, 32.75 36.06, 63.08 -0.84 M2.58 78.63 C18.25 58.16, 35.43 41.58, 67.9 0.75 M0.67 77.88 C19.3 55.17, 39.39 32.95, 69.36 -0.64 M4.33 76.58 C27.65 52.98, 47.6 28.28, 75.61 -0.68 M6.08 78.84 C24.24 56.34, 42.48 36.44, 74.28 0.13 M12.86 79.04 C26.02 60.08, 39.02 43.98, 79.67 1.6 M12.65 78.59 C34.14 50.48, 58.49 23.97, 79.13 0.3 M16.12 77.48 C42.91 49.64, 71.98 18.67, 84.26 -1.7 M15.92 78.57 C30.68 63.7, 43.92 47.91, 85.19 -0.5 M21.08 78.1 C44.51 55.3, 64.6 29.83, 89.18 1.98 M22.16 78.3 C37.58 60.46, 51.85 43.25, 90.75 0.47 M28.81 78.42 C43.77 61.91, 59.46 41.6, 97.61 1.56 M27.39 77.66 C47.51 55.6, 66.59 33.48, 95.62 0.23 M34.22 77.87 C54.42 54.61, 75.93 31.86, 99.21 -1.08 M33.94 78.04 C53.58 56.57, 72.97 34.04, 100.2 0.31 M37.28 78.3 C56.5 59.79, 72.83 36.47, 105.87 -0.55 M37.42 78.62 C62.79 48.72, 88.66 20.16, 105.96 -0.03 M42.61 78.59 C62.54 55.92, 83.4 29.21, 110.86 0.62 M43.32 77.52 C61.47 58.52, 77.44 39.51, 110.53 0.42 M46.78 79.19 C72.23 51.51, 95.56 22.69, 115.91 -0.75 M47.99 78.11 C62.84 60.58, 78.29 42.93, 115.53 0.79 M53.9 76.66 C79.65 49.69, 104.19 19.75, 121.61 0.4 M55.2 78.12 C74.28 53.73, 93.61 32.75, 122.89 0.58 M58.9 76.3 C83.77 51.22, 107.62 23.11, 127.93 0.12 M59.17 77.97 C74.94 60.32, 88.63 43.98, 126.17 1.17 M63.11 78.62 C88.54 52.15, 111.47 25.03, 131.25 -1.23 M65.09 77.89 C90.53 48.19, 115.12 19.97, 133.47 0.73 M69.56 80 C94.98 51.81, 117.87 22.9, 137.51 -0.37 M70.13 78.22 C87.44 58.44, 103.99 37.77, 137.38 -0.48 M74.58 79.17 C99.89 46.33, 128.11 16.51, 143.94 1.4 M76.02 78.55 C96.82 52.83, 120.17 27.19, 142.57 0 M79.04 77.84 C108.61 47.28, 132.46 14.39, 148.21 0.79 M80.07 78.03 C98.35 57.01, 115.25 37.22, 147.83 0.17 M87.35 79.94 C103.04 57.06, 122.35 36.7, 154.15 1.08 M85 79.25 C107.31 53.72, 129.08 29.26, 153.56 -0.32 M89.96 76.49 C107.8 63.06, 119.73 46.98, 156.94 -1.28 M91.3 78.77 C109.36 57.26, 126.4 37.81, 157.82 1.13 M95.78 76.42 C116.66 54.85, 134.49 33.95, 164.74 -0.2 M96.54 78.55 C109.99 61.29, 124.29 46.59, 163.88 0.23 M101.27 79.81 C118.26 59.72, 134.86 37.3, 167.96 -1.27 M102.22 76.95 C122.48 54.23, 144.38 27.98, 170.21 1.08 M107.58 76.54 C130 54.46, 150.47 29.71, 176.88 -1.32 M107.8 77.94 C122.46 60.49, 137.04 43.06, 176.06 0.3 M114.28 78.79 C128.6 59.03, 146.74 39.83, 178.88 -1.74 M112.27 77.28 C138.14 47.69, 164.48 17.86, 179.44 0.35 M116.5 79.63 C140.71 53.74, 160.73 27.37, 184.09 -0.01 M118.15 77.83 C134.79 58.65, 151.58 37.79, 186.69 -0.32 M122.64 77.59 C142.09 54.32, 164.1 31.83, 190.63 0.93 M123.01 77.64 C140.86 58.17, 157.22 39.01, 190.51 -0.02 M127.58 79.18 C151.11 51.48, 173.92 21.65, 198.24 1.18 M127.54 77.3 C152.42 49.62, 176.46 21.85, 195.46 0.36 M134.34 79.52 C155.23 52.13, 180.3 25.82, 201.51 -1.49 M133.04 78.05 C150.13 58.86, 164.54 41.98, 202.03 0.65 M139.26 76.83 C156.3 55.09, 178.16 34.12, 207.54 0.85 M139.49 79.1 C156.66 58.14, 172.88 39.78, 206.13 -0.5 M145.71 77.05 C159.24 58.99, 177.59 36.59, 213.15 0.91 M145.06 77.74 C158.72 60.63, 175.28 41.26, 211.17 -0.28 M149.28 76.38 C166.56 59.76, 183.94 40.79, 218.54 0.73 M150.14 78.67 C165.59 60.85, 181.04 42.02, 217.53 0.41 M155.44 77.81 C168.71 62.21, 183.97 42.66, 224.52 -1.78 M154.85 78.1 C175.75 54.74, 196.07 31.11, 222.67 0.23 M160.75 77.77 C176.09 60.03, 192.38 39.31, 230.15 -0.26 M159.15 79.09 C177.2 57.14, 193.8 38.36, 228.58 -0.41 M166.54 78.58 C189.88 51.8, 213.27 23.54, 233.95 -1.33 M166.26 77.68 C184.48 55.98, 202.8 36.02, 233.86 -0.11 M172.11 79.12 C192.37 51.53, 215.2 27.01, 238.94 0.7 M170.79 78.14 C185.87 59.68, 203.53 41.15, 238.6 0.46 M176.39 79.3 C202.21 46.48, 230.41 17.04, 245.09 -1.35 M176.22 77.2 C199.59 51.28, 221.75 24.48, 243.66 0.07 M183.16 78.69 C197.57 59.15, 216.25 40, 246.5 2.82 M180.92 77.26 C208.63 48.27, 234.84 17.57, 247.69 0.87 M186.7 77.06 C205.89 54.47, 222.64 35.55, 246.41 8.26 M187.73 78.59 C204.69 58.11, 221.84 37.93, 246.99 8.37 M193.01 76.92 C211.31 58.74, 227.85 36.61, 248.24 14.3 M191.94 78.56 C206.86 61.49, 221.8 43.12, 248.44 14.63 M196.85 76.86 C211.07 63.03, 225 45.61, 248.2 19.93 M196.22 78.65 C207.92 65.12, 219.37 54.37, 246.87 20.26 M202.16 78.37 C214.71 65.34, 222.53 53.39, 249.61 24.09 M201.87 77.83 C216.03 63.01, 229.97 47.69, 247.28 26.37 M208.57 78.61 C217.31 65.74, 226.58 53.84, 247.42 32.49 M207.18 79.13 C217.93 66.62, 226.33 56.62, 248.19 32.08 M214.41 77.77 C220.81 70.45, 230.24 60.98, 249.23 38.89 M213.28 77.53 C221.44 67.85, 230.06 57.54, 248.5 37.44 M219.93 79.62 C226.94 71.81, 230.61 62.76, 248.45 43.71 M217.19 78.21 C224.02 71.75, 231.95 63.96, 247.53 44.66 M222.94 78.04 C231.31 70.5, 236.29 63.03, 245.39 51.29 M224.33 77.77 C229.93 71, 234.84 66.15, 247.85 51.11 M230.03 77.61 C237.23 72.41, 243.1 60.63, 247.68 56.76 M229.56 78.46 C232.47 74.04, 236.84 70.07, 248.67 56.74 M236.25 76.2 C240.54 70.36, 245.4 64.52, 248.73 62.79 M233.74 77.37 C238.37 75.08, 240 70.09, 248.08 62.59 M239.98 77.74 C240.78 75.99, 245.64 73.14, 247.2 67.48 M238.95 78.51 C242.21 74.22, 245.94 71.51, 247.31 68.62"
      stroke="#ced4da" stroke-width="0.5" fill="none"></path>
    <path
      d="M-0.16 0.11 C88.53 -2.3, 173.49 -0.45, 245.67 -1.06 M0.47 0.53 C66.41 -0.67, 132.57 -1.14, 245.19 0.35 M246.24 -1.7 C245.66 15.97, 246.75 33.68, 247.02 75.31 M245.87 -0.5 C246.82 28.98, 246.69 58.88, 246.48 77.5 M244.54 77.71 C172.71 75.54, 100.65 75.74, -1.09 78.44 M245.08 76.27 C156.34 76.87, 66.06 76.78, 0.18 77.62 M-1.46 78.77 C-0.36 46.73, 0.23 15.1, -0.85 1.31 M-0.98 77.95 C0.1 60.91, -1.32 43.53, 0.91 0.53"
      stroke="#d9480f" stroke-width="1" fill="none"></path>
  </g>
  <g transform="translate(97.92616271972656 448.13597869873047) rotate(0 35.5 12)"><text x="0" y="19"
      font-family="Cascadia, Segoe UI Emoji" font-size="20px" fill="#d9480f" text-anchor="start"
      style="white-space: pre;" direction="ltr">Wallet</text></g>
  <g stroke-linecap="round"
    transform="translate(401.6940837248794 748.4720146633879) rotate(0 35.3515625 32.53773834745766)">
    <path
      d="M6.55 13.64 C6.55 13.64, 6.55 13.64, 6.55 13.64 M6.55 13.64 C6.55 13.64, 6.55 13.64, 6.55 13.64 M2.32 32.28 C8.04 24.64, 15.8 11.81, 27.46 1.52 M0.14 33 C9.72 22.51, 17.96 14.44, 25.8 3.32 M3.88 43.03 C10.08 31.17, 19.53 23.32, 38.17 5.58 M4.21 41.08 C15.39 27.46, 26.92 13.72, 36.53 3.24 M7.82 52.33 C19.48 36.4, 33.08 17.04, 48.47 4.24 M6.74 49.9 C17.34 38.76, 27.27 26.38, 46.19 2.89 M9.89 56.8 C22.21 43.97, 33.44 31.89, 54.77 7.39 M11.96 55.59 C27.71 38.15, 44.51 19.64, 53.24 9.08 M20.05 62.56 C29.49 46.28, 41.7 33.89, 60.09 11.12 M18.88 60.86 C30.47 48.5, 40.2 35.37, 59.92 12.81 M25.48 64.45 C39.36 51.17, 51.88 38, 66.05 18.64 M25.11 64.84 C39.28 49.05, 54.64 31.05, 68.01 17.78 M37.7 65.66 C47.44 54.49, 56.69 42.44, 71.94 24.03 M35.82 64.37 C50.16 48.48, 62.01 34.2, 70.83 24.91 M45.75 64.75 C57.79 51.89, 69.05 41.27, 72.99 35.56 M47.81 63.74 C57.7 54.05, 66.12 41.16, 73.29 33.2"
      stroke="#ced4da" stroke-width="1" fill="none"></path>
    <path
      d="M45.36 1.76 C51.64 3.42, 58.84 9.19, 63.16 14.24 C67.48 19.29, 71.08 25.82, 71.3 32.04 C71.53 38.26, 68.58 46.17, 64.51 51.55 C60.43 56.92, 53.44 62.2, 46.83 64.28 C40.22 66.36, 31.62 66.08, 24.84 64 C18.07 61.92, 10.24 57.06, 6.2 51.79 C2.16 46.53, 0.57 38.73, 0.59 32.4 C0.62 26.08, 2.52 19.08, 6.37 13.84 C10.22 8.6, 15.77 2.44, 23.67 0.96 C31.56 -0.52, 47.82 3.61, 53.73 4.97 C59.65 6.34, 59.38 8.83, 59.15 9.15 M46.89 1.05 C53.33 2.41, 62.15 8.51, 65.95 13.87 C69.75 19.23, 70.19 26.55, 69.67 33.19 C69.16 39.84, 66.99 48.64, 62.84 53.74 C58.69 58.85, 51.3 62.48, 44.77 63.81 C38.24 65.14, 29.97 64.25, 23.67 61.73 C17.37 59.21, 11.14 53.93, 6.96 48.69 C2.79 43.45, -1.51 36.42, -1.39 30.3 C-1.26 24.17, 2.95 16.87, 7.7 11.93 C12.44 6.98, 20.26 2.18, 27.1 0.63 C33.94 -0.92, 45.49 2.36, 48.73 2.64 C51.97 2.93, 46.87 1.72, 46.55 2.34"
      stroke="#d9480f" stroke-width="2" fill="none"></path>
  </g>
  <g stroke-linecap="round">
    <g transform="translate(433.18243118250666 813.3206768421767) rotate(0 -2.0060220193892633 39.90261202233802)">
      <path d="M0.52 0.76 C-0.24 13.66, -2.69 65.36, -3.55 78.41 M-0.66 0.11 C-1.68 13.09, -4.26 66.3, -4.54 79.7"
        stroke="#d9480f" stroke-width="2" fill="none"></path>
    </g>
  </g>
  <g stroke-linecap="round">
    <g transform="translate(429.8852913519977 894.2330179438684) rotate(0 15.221882899845241 23.378215987153794)">
      <path d="M0.76 -0.08 C5.72 7.66, 25.64 39.11, 30.75 46.98 M-0.31 -1.16 C4.37 6.64, 24.37 39.74, 29.55 47.92"
        stroke="#d9480f" stroke-width="2" fill="none"></path>
    </g>
  </g>
  <g stroke-linecap="round">
    <g transform="translate(425.29048202996546 890.7107721811587) rotate(0 -13.96675553244171 22.369336149116407)">
      <path d="M-0.08 -0.48 C-4.81 6.87, -23.25 37.19, -27.86 44.88 M-1.58 -1.78 C-6 5.73, -21.78 38.92, -25.74 46.52"
        stroke="#d9480f" stroke-width="2" fill="none"></path>
    </g>
  </g>
  <g stroke-linecap="round">
    <g transform="translate(389.6192707673081 857.8168922740876) rotate(0 20.497579527448806 -13.267865307054649)">
      <path d="M-0.48 -1.13 C6.31 -5.69, 34.35 -23.32, 41.48 -27.42 M1.47 0.88 C8.05 -3.55, 33.87 -21.63, 40.63 -26.39"
        stroke="#d9480f" stroke-width="2" fill="none"></path>
    </g>
  </g>
  <g stroke-linecap="round">
    <g transform="translate(429.93573969886074 830.0390351914209) rotate(0 14.814999225926954 17.697061569080688)">
      <path d="M-1.13 0.19 C3.64 6.29, 23.33 30.43, 28.56 36.16 M0.47 -0.76 C5.62 5.06, 25.86 28.49, 30.76 34.54"
        stroke="#d9480f" stroke-width="2" fill="none"></path>
    </g>
  </g>
  <g stroke-linecap="round">
    <g transform="translate(474.93588288200135 759.1315941007888) rotate(0 117.778977620771 -131.20159819130254)">
      <path
        d="M0.93 0.35 C40.17 -43.09, 196.41 -217.33, 235.6 -260.83 M-0.04 -0.51 C39 -44.31, 195.21 -219.06, 234.44 -262.75"
        stroke="#000000" stroke-width="1" fill="none"></path>
    </g>
    <g transform="translate(474.93588288200135 759.1315941007888) rotate(0 117.778977620771 -131.20159819130254)">
      <path
        d="M223.86 -235.59 C227.42 -243.54, 231.21 -253.19, 233.34 -261.91 M222.66 -235.12 C225.85 -241.63, 227.89 -248.19, 234.04 -262.98"
        stroke="#000000" stroke-width="1" fill="none"></path>
    </g>
    <g transform="translate(474.93588288200135 759.1315941007888) rotate(0 117.778977620771 -131.20159819130254)">
      <path
        d="M208.57 -249.28 C216.87 -253.09, 225.42 -258.48, 233.34 -261.91 M207.38 -248.81 C214.12 -252.14, 219.6 -255.62, 234.04 -262.98"
        stroke="#000000" stroke-width="1" fill="none"></path>
    </g>
  </g>
  <g stroke-linecap="round">
    <g transform="translate(860.1661762860749 406.1689453125) rotate(0 -141.60081320859285 -171.40430748371617)">
      <path
        d="M-0.9 0.92 C-48.26 -56.55, -236.24 -286.29, -283.67 -343.72 M0.83 0.35 C-46.64 -56.39, -236.72 -285.06, -284.03 -342.16"
        stroke="#000000" stroke-width="1" fill="none"></path>
    </g>
    <g transform="translate(860.1661762860749 406.1689453125) rotate(0 -141.60081320859285 -171.40430748371617)">
      <path
        d="M-256.6 -325.15 C-267.04 -333.61, -275.79 -335.67, -283.44 -340.73 M-257.9 -327.66 C-264.75 -330.17, -269.38 -333.94, -283.31 -341.19"
        stroke="#000000" stroke-width="1" fill="none"></path>
    </g>
    <g transform="translate(860.1661762860749 406.1689453125) rotate(0 -141.60081320859285 -171.40430748371617)">
      <path
        d="M-272.39 -312.04 C-277.55 -324.86, -280.91 -331.4, -283.44 -340.73 M-273.69 -314.56 C-277.01 -320.1, -278.14 -326.79, -283.31 -341.19"
        stroke="#000000" stroke-width="1" fill="none"></path>
    </g>
  </g>
  <g stroke-linecap="round">
    <g transform="translate(463.7470462384024 97.91235389672221) rotate(0 128.7888346557604 154.2383903258759)">
      <path
        d="M-0.31 -0.61 C42.8 50.88, 214.78 256.33, 257.88 307.93 M1.73 1.69 C44.72 53.41, 214.17 258.22, 256.82 309.08"
        stroke="#000000" stroke-width="1" fill="none"></path>
    </g>
    <g transform="translate(463.7470462384024 97.91235389672221) rotate(0 128.7888346557604 154.2383903258759)">
      <path
        d="M229.89 293.62 C235.71 298.01, 243.72 302.17, 256.76 308.11 M230.2 294.43 C239.73 299.48, 249.6 304.66, 257.32 309.76"
        stroke="#000000" stroke-width="1" fill="none"></path>
    </g>
    <g transform="translate(463.7470462384024 97.91235389672221) rotate(0 128.7888346557604 154.2383903258759)">
      <path
        d="M245.67 280.49 C247.62 287.97, 251.87 295.25, 256.76 308.11 M245.97 281.3 C249.77 291.29, 253.82 301.31, 257.32 309.76"
        stroke="#000000" stroke-width="1" fill="none"></path>
    </g>
  </g>
  <g stroke-linecap="round">
    <g transform="translate(611.9058227539062 455.20660400390625) rotate(0 -170.6049791284837 1.3091562824789094)">
      <path
        d="M-0.28 -1.1 C-57.21 -0.52, -285.13 1.95, -342.01 2.74 M1.78 0.94 C-55.28 1.69, -285.67 3.05, -342.99 3.71"
        stroke="#000000" stroke-width="1" fill="none"></path>
    </g>
    <g transform="translate(611.9058227539062 455.20660400390625) rotate(0 -170.6049791284837 1.3091562824789094)">
      <path
        d="M-316.71 -6.86 C-324.19 -3.38, -330.09 0.45, -343.4 4.67 M-315.22 -6.01 C-324.37 -2.98, -334.5 0.66, -343.67 3.66"
        stroke="#000000" stroke-width="1" fill="none"></path>
    </g>
    <g transform="translate(611.9058227539062 455.20660400390625) rotate(0 -170.6049791284837 1.3091562824789094)">
      <path
        d="M-316.54 13.66 C-323.93 11.7, -329.88 10.09, -343.4 4.67 M-315.05 14.51 C-324.11 10.3, -334.3 6.7, -343.67 3.66"
        stroke="#000000" stroke-width="1" fill="none"></path>
    </g>
  </g>
  <g stroke-linecap="round">
    <g transform="translate(18.43523925150896 412.63201904296875) rotate(0 147.84745387431624 -171.52820272849505)">
      <path
        d="M-0.2 -0.34 C49.51 -57.55, 247.83 -285.76, 297.46 -342.72 M-1.77 -1.57 C47.85 -58.66, 246.72 -284.95, 296.49 -341.49"
        stroke="#000000" stroke-width="1" fill="none"></path>
    </g>
    <g transform="translate(18.43523925150896 412.63201904296875) rotate(0 147.84745387431624 -171.52820272849505)">
      <path
        d="M285.01 -313.64 C287.03 -319.97, 290.62 -328.51, 296.18 -341.84 M286.31 -312.59 C289.43 -322.37, 292.71 -329.9, 296.55 -341.99"
        stroke="#000000" stroke-width="1" fill="none"></path>
    </g>
    <g transform="translate(18.43523925150896 412.63201904296875) rotate(0 147.84745387431624 -171.52820272849505)">
      <path
        d="M269.6 -327.19 C275.29 -330.32, 282.49 -335.68, 296.18 -341.84 M270.9 -326.14 C278.74 -331.64, 286.81 -334.97, 296.55 -341.99"
        stroke="#000000" stroke-width="1" fill="none"></path>
    </g>
  </g>
  <g stroke-linecap="round">
    <g transform="translate(431.29297530581766 101.22481537723917) rotate(0 -131.3874271921712 154.20992009583864)">
      <path
        d="M0.29 0.64 C-43.38 52.18, -218.49 257.24, -262.01 308.49 M-1.02 -0.07 C-44.86 51.15, -219.73 254.91, -263.06 306.49"
        stroke="#000000" stroke-width="1" fill="none"></path>
    </g>
    <g transform="translate(431.29297530581766 101.22481537723917) rotate(0 -131.3874271921712 154.20992009583864)">
      <path
        d="M-251.56 278.02 C-255.55 288.49, -259.22 294.08, -262.96 308.32 M-252.97 277.73 C-254.97 284.45, -256.85 290.97, -262.94 305.99"
        stroke="#000000" stroke-width="1" fill="none"></path>
    </g>
    <g transform="translate(431.29297530581766 101.22481537723917) rotate(0 -131.3874271921712 154.20992009583864)">
      <path
        d="M-235.92 291.31 C-244.5 297.85, -252.85 299.47, -262.96 308.32 M-237.34 291.03 C-242.6 294.96, -247.75 298.7, -262.94 305.99"
        stroke="#000000" stroke-width="1" fill="none"></path>
    </g>
  </g>
  <g transform="translate(519.6597290039062 648.7933349609375) rotate(311.8933317708141 66 9.5)"><text x="0" y="15"
      font-family="Cascadia, Segoe UI Emoji" font-size="16px" fill="#000000" text-anchor="start"
      style="white-space: pre;" direction="ltr">1. User Action</text></g>
  <g transform="translate(607.7446614433576 173.0127430646192) rotate(51.902125543384756 89.5 9.5)"><text x="0" y="15"
      font-family="Cascadia, Segoe UI Emoji" font-size="16px" fill="#000000" text-anchor="start"
      style="white-space: pre;" direction="ltr">2. Generate Session</text></g>
  <g transform="translate(491.65107441773966 230.560074672265) rotate(50.08477233365731 108.5 9.5)"><text x="0" y="15"
      font-family="Cascadia, Segoe UI Emoji" font-size="16px" fill="#000000" text-anchor="start"
      style="white-space: pre;" direction="ltr">4. Get Requested Claims</text></g>
  <g transform="translate(342.23333740234375 427.739990234375) rotate(0 66 9.5)"><text x="0" y="15"
      font-family="Cascadia, Segoe UI Emoji" font-size="16px" fill="#000000" text-anchor="start"
      style="white-space: pre;" direction="ltr">3. Scan QRCode</text></g>
  <g transform="translate(43.52692236308735 214.30990856925496) rotate(311.3689377149858 117.5 9.5)"><text x="0" y="15"
      font-family="Cascadia, Segoe UI Emoji" font-size="16px" fill="#000000" text-anchor="start"
      style="white-space: pre;" direction="ltr">7. Submit Response Claims</text></g>
  <g transform="translate(168.0777587890625 245.73434448242188) rotate(311.3689377149858 108.5 9.5)"><text x="0" y="15"
      font-family="Cascadia, Segoe UI Emoji" font-size="16px" fill="#000000" text-anchor="start"
      style="white-space: pre;" direction="ltr">5. Get Requested Claims</text></g>
  <g transform="translate(154.82574462890625 631.853271484375) rotate(43.97072353267797 99 9.5)"><text x="0" y="15"
      font-family="Cascadia, Segoe UI Emoji" font-size="16px" fill="#000000" text-anchor="start"
      style="white-space: pre;" direction="ltr">6. Review and Confirm</text></g>
  <g stroke-linecap="round">
    <g transform="translate(400.3123739715668 753.0476320328254) rotate(0 -127.05524799699316 -123.97025060361568)">
      <path
        d="M-0.28 -0.99 C-42.82 -42.11, -212.67 -206.21, -255.25 -247.29 M1.78 1.11 C-40.87 -40.31, -212.85 -207.27, -255.89 -249.05"
        stroke="#000000" stroke-width="1" fill="none"></path>
    </g>
    <g transform="translate(400.3123739715668 753.0476320328254) rotate(0 -127.05524799699316 -123.97025060361568)">
      <path
        d="M-230.16 -235.8 C-235.48 -240.35, -243.96 -244.28, -254.05 -248.45 M-228.21 -236.13 C-235.94 -240.5, -244.45 -244.42, -256.22 -248.18"
        stroke="#000000" stroke-width="1" fill="none"></path>
    </g>
    <g transform="translate(400.3123739715668 753.0476320328254) rotate(0 -127.05524799699316 -123.97025060361568)">
      <path
        d="M-244.46 -221.08 C-245.42 -230, -249.63 -238.33, -254.05 -248.45 M-242.5 -221.4 C-246.22 -229.98, -250.63 -238.11, -256.22 -248.18"
        stroke="#000000" stroke-width="1" fill="none"></path>
    </g>
  </g>
  <g transform="translate(452.7797938049871 256.02289303909834) rotate(50.08477233365731 122.5 9.5)"><text x="0" y="15"
      font-family="Cascadia, Segoe UI Emoji" font-size="16px" fill="#000000" text-anchor="start"
      style="white-space: pre;" direction="ltr">8. Consume Response Claims</text></g>
</svg>
