<svg width="184" height="134" viewBox="0 0 184 134" fill="none" xmlns="http://www.w3.org/2000/svg">
<g clip-path="url(#clip0_401_70)">
<path d="M98.2084 4.52541L106.047 0H134.58V83.7233H106.315C106.139 83.7233 105.967 83.6771 105.815 83.5893L75.3764 66.0158L75.3764 17.7075L79.011 15.609L85.411 19.3041L81.7764 21.4025V62.3208L107.761 77.3233H128.18V6.4H107.761L104.608 8.22046L98.2084 4.52541Z" fill="#6BBDFE"/>
<path fill-rule="evenodd" clip-rule="evenodd" d="M101.804 62.3208V21.4025L75.8184 6.4H55.4V77.3233H75.8184L78.9813 75.4972L85.3813 79.1923L77.5333 83.7233H49V0H77.5333L108.204 17.7075V66.0158L104.579 68.1087L98.1786 64.4136L101.804 62.3208Z" fill="#4598FA"/>
<path fill-rule="evenodd" clip-rule="evenodd" d="M0.315536 133.284V109H13.1598C16.4283 109.224 18.9829 111.949 18.9829 115.243V127.026C18.9829 130.482 16.181 133.284 12.7247 133.284H0.315536ZM27.0587 109H23.7238V133.321H27.0587V109ZM3.65045 129.949V112.32H12.7247C14.3392 112.32 15.648 113.629 15.648 115.243V127.026C15.648 128.64 14.3392 129.949 12.7247 129.949H3.65045ZM31.7433 109V133.284H44.1525C47.6088 133.284 50.4107 130.482 50.4107 127.026V115.243C50.4107 111.949 47.8561 109.224 44.5876 109H31.7433ZM54.6547 114.636H58.3831V118.364H54.6547V114.636ZM58.3831 123.957H54.6547V127.686H58.3831V123.957ZM35.0783 112.32V129.949H44.1525C45.767 129.949 47.0758 128.64 47.0758 127.026V115.243C47.0758 113.629 45.767 112.32 44.1525 112.32H35.0783Z" fill="#363844"/>
<path d="M83.44 128.684C83.632 128.684 83.7973 128.759 83.936 128.908L85.28 130.38C84.3413 131.489 83.1947 132.348 81.84 132.956C80.496 133.564 78.8747 133.868 76.976 133.868C75.312 133.868 73.8027 133.58 72.448 133.004C71.104 132.428 69.952 131.623 68.992 130.588C68.0427 129.553 67.3067 128.316 66.784 126.876C66.2613 125.436 66 123.852 66 122.124C66 120.396 66.272 118.812 66.816 117.372C67.3707 115.932 68.144 114.695 69.136 113.66C70.128 112.625 71.312 111.82 72.688 111.244C74.0747 110.668 75.6053 110.38 77.28 110.38C78.912 110.38 80.3627 110.647 81.632 111.18C82.9013 111.713 84.0053 112.423 84.944 113.308L83.824 114.892C83.7493 115.009 83.6533 115.105 83.536 115.18C83.4293 115.255 83.2853 115.292 83.104 115.292C82.9013 115.292 82.6613 115.191 82.384 114.988C82.1173 114.785 81.76 114.561 81.312 114.316C80.8747 114.06 80.3307 113.831 79.68 113.628C79.0293 113.425 78.2187 113.324 77.248 113.324C76.1067 113.324 75.0613 113.527 74.112 113.932C73.1627 114.327 72.3413 114.903 71.648 115.66C70.9653 116.407 70.432 117.329 70.048 118.428C69.6747 119.516 69.488 120.748 69.488 122.124C69.488 123.521 69.6853 124.764 70.08 125.852C70.4747 126.94 71.0187 127.863 71.712 128.62C72.4053 129.377 73.2213 129.953 74.16 130.348C75.0987 130.743 76.112 130.94 77.2 130.94C77.8613 130.94 78.4533 130.903 78.976 130.828C79.5093 130.743 79.9947 130.62 80.432 130.46C80.88 130.3 81.3013 130.097 81.696 129.852C82.0907 129.596 82.48 129.292 82.864 128.94C82.9493 128.865 83.04 128.807 83.136 128.764C83.232 128.711 83.3333 128.684 83.44 128.684Z" fill="#4598FA"/>
<path d="M94.68 117.1C95.8747 117.1 96.952 117.297 97.912 117.692C98.8827 118.076 99.704 118.636 100.376 119.372C101.059 120.097 101.581 120.977 101.944 122.012C102.307 123.036 102.488 124.188 102.488 125.468C102.488 126.748 102.307 127.905 101.944 128.94C101.581 129.975 101.059 130.855 100.376 131.58C99.704 132.305 98.8827 132.865 97.912 133.26C96.952 133.644 95.8747 133.836 94.68 133.836C93.4747 133.836 92.3867 133.644 91.416 133.26C90.456 132.865 89.6347 132.305 88.952 131.58C88.2693 130.855 87.7413 129.975 87.368 128.94C87.0053 127.905 86.824 126.748 86.824 125.468C86.824 124.188 87.0053 123.036 87.368 122.012C87.7413 120.977 88.2693 120.097 88.952 119.372C89.6347 118.636 90.456 118.076 91.416 117.692C92.3867 117.297 93.4747 117.1 94.68 117.1ZM94.68 131.404C96.216 131.404 97.3627 130.887 98.12 129.852C98.8773 128.817 99.256 127.361 99.256 125.484C99.256 123.607 98.8773 122.151 98.12 121.116C97.3627 120.071 96.216 119.548 94.68 119.548C93.1227 119.548 91.96 120.071 91.192 121.116C90.4347 122.151 90.056 123.607 90.056 125.484C90.056 127.361 90.4347 128.817 91.192 129.852C91.96 130.887 93.1227 131.404 94.68 131.404Z" fill="#4598FA"/>
<path d="M108.899 119.612C109.251 119.239 109.619 118.897 110.003 118.588C110.387 118.279 110.792 118.017 111.219 117.804C111.656 117.58 112.12 117.409 112.611 117.292C113.112 117.164 113.645 117.1 114.211 117.1C115.107 117.1 115.891 117.249 116.563 117.548C117.245 117.847 117.816 118.268 118.275 118.812C118.733 119.345 119.08 119.991 119.315 120.748C119.549 121.505 119.667 122.343 119.667 123.26V133.612H116.531V123.26C116.531 122.097 116.264 121.196 115.731 120.556C115.197 119.905 114.381 119.58 113.283 119.58C112.483 119.58 111.731 119.772 111.027 120.156C110.333 120.529 109.688 121.041 109.091 121.692V133.612H105.971V117.356H107.843C108.28 117.356 108.552 117.564 108.659 117.98L108.899 119.612Z" fill="#4598FA"/>
<path d="M126.805 119.612C127.157 119.239 127.525 118.897 127.909 118.588C128.293 118.279 128.698 118.017 129.125 117.804C129.562 117.58 130.026 117.409 130.517 117.292C131.018 117.164 131.552 117.1 132.117 117.1C133.013 117.1 133.797 117.249 134.469 117.548C135.152 117.847 135.722 118.268 136.181 118.812C136.64 119.345 136.986 119.991 137.221 120.748C137.456 121.505 137.573 122.343 137.573 123.26V133.612H134.437V123.26C134.437 122.097 134.17 121.196 133.637 120.556C133.104 119.905 132.288 119.58 131.189 119.58C130.389 119.58 129.637 119.772 128.933 120.156C128.24 120.529 127.594 121.041 126.997 121.692V133.612H123.877V117.356H125.749C126.186 117.356 126.458 117.564 126.565 117.98L126.805 119.612Z" fill="#4598FA"/>
<path d="M152.551 123.676C152.551 123.057 152.461 122.487 152.279 121.964C152.109 121.441 151.853 120.988 151.511 120.604C151.17 120.22 150.754 119.921 150.263 119.708C149.773 119.495 149.207 119.388 148.567 119.388C147.255 119.388 146.221 119.767 145.463 120.524C144.717 121.281 144.242 122.332 144.039 123.676H152.551ZM155.127 131.292C154.743 131.74 154.301 132.129 153.799 132.46C153.298 132.78 152.765 133.041 152.199 133.244C151.634 133.447 151.047 133.596 150.439 133.692C149.842 133.788 149.25 133.836 148.663 133.836C147.543 133.836 146.503 133.649 145.543 133.276C144.594 132.892 143.767 132.337 143.063 131.612C142.37 130.876 141.826 129.969 141.431 128.892C141.047 127.804 140.855 126.556 140.855 125.148C140.855 124.017 141.031 122.967 141.383 121.996C141.735 121.015 142.237 120.161 142.887 119.436C143.549 118.711 144.354 118.14 145.303 117.724C146.253 117.308 147.319 117.1 148.503 117.1C149.495 117.1 150.407 117.265 151.239 117.596C152.082 117.916 152.807 118.385 153.415 119.004C154.023 119.623 154.498 120.385 154.839 121.292C155.191 122.199 155.367 123.233 155.367 124.396C155.367 124.876 155.314 125.201 155.207 125.372C155.101 125.532 154.903 125.612 154.615 125.612H143.959C143.991 126.583 144.13 127.431 144.375 128.156C144.621 128.871 144.957 129.468 145.383 129.948C145.821 130.428 146.338 130.785 146.935 131.02C147.533 131.255 148.199 131.372 148.935 131.372C149.629 131.372 150.226 131.292 150.727 131.132C151.239 130.972 151.677 130.801 152.039 130.62C152.413 130.428 152.722 130.252 152.967 130.092C153.223 129.932 153.447 129.852 153.639 129.852C153.895 129.852 154.093 129.948 154.231 130.14L155.127 131.292Z" fill="#4598FA"/>
<path d="M170.113 120.396C170.017 120.513 169.921 120.609 169.825 120.684C169.739 120.748 169.611 120.78 169.441 120.78C169.27 120.78 169.089 120.716 168.897 120.588C168.715 120.449 168.481 120.305 168.193 120.156C167.915 119.996 167.574 119.852 167.169 119.724C166.774 119.585 166.283 119.516 165.697 119.516C164.929 119.516 164.251 119.655 163.665 119.932C163.078 120.209 162.587 120.604 162.193 121.116C161.809 121.628 161.515 122.252 161.313 122.988C161.11 123.724 161.009 124.551 161.009 125.468C161.009 126.417 161.115 127.265 161.329 128.012C161.542 128.748 161.846 129.372 162.241 129.884C162.635 130.385 163.115 130.769 163.681 131.036C164.246 131.292 164.875 131.42 165.569 131.42C166.241 131.42 166.795 131.34 167.233 131.18C167.67 131.009 168.033 130.828 168.321 130.636C168.609 130.444 168.849 130.268 169.041 130.108C169.233 129.937 169.43 129.852 169.633 129.852C169.889 129.852 170.086 129.948 170.225 130.14L171.121 131.292C170.747 131.751 170.326 132.14 169.857 132.46C169.398 132.78 168.907 133.041 168.385 133.244C167.862 133.447 167.313 133.596 166.737 133.692C166.171 133.788 165.595 133.836 165.009 133.836C163.995 133.836 163.046 133.649 162.161 133.276C161.286 132.903 160.523 132.359 159.873 131.644C159.233 130.929 158.726 130.055 158.353 129.02C157.979 127.975 157.793 126.791 157.793 125.468C157.793 124.263 157.958 123.148 158.289 122.124C158.63 121.1 159.126 120.22 159.777 119.484C160.438 118.737 161.249 118.156 162.209 117.74C163.169 117.313 164.267 117.1 165.505 117.1C166.667 117.1 167.691 117.287 168.577 117.66C169.462 118.033 170.251 118.561 170.945 119.244L170.113 120.396Z" fill="#4598FA"/>
<path d="M179.121 133.868C177.809 133.868 176.796 133.5 176.081 132.764C175.377 132.028 175.025 130.977 175.025 129.612V119.884H173.137C172.956 119.884 172.801 119.831 172.673 119.724C172.556 119.607 172.497 119.436 172.497 119.212V117.948L175.137 117.58L175.841 112.732C175.884 112.551 175.964 112.412 176.081 112.316C176.209 112.209 176.369 112.156 176.561 112.156H178.145V117.612H182.753V119.884H178.145V129.404C178.145 130.044 178.3 130.524 178.609 130.844C178.929 131.153 179.335 131.308 179.825 131.308C180.113 131.308 180.359 131.271 180.561 131.196C180.775 131.121 180.956 131.041 181.105 130.956C181.255 130.86 181.383 130.775 181.489 130.7C181.596 130.625 181.692 130.588 181.777 130.588C181.884 130.588 181.964 130.615 182.017 130.668C182.081 130.711 182.145 130.785 182.209 130.892L183.137 132.396C182.625 132.865 182.017 133.228 181.313 133.484C180.609 133.74 179.879 133.868 179.121 133.868Z" fill="#4598FA"/>
</g>
<defs>
<clipPath id="clip0_401_70">
<rect width="184" height="134" fill="white"/>
</clipPath>
</defs>
</svg>
