<svg width="239" height="42" viewBox="0 0 239 42" fill="none" xmlns="http://www.w3.org/2000/svg">
<path d="M24.6042 2.26271L28.5233 0H42.7899V41.8617H28.7912C28.6157 41.8617 28.4433 41.8155 28.2912 41.7277L13.1882 33.0079L13.1882 8.85374L15.0055 7.80451L18.2055 9.65203L16.3882 10.7013V31.1604L29.3807 38.6617H39.5899V3.2H29.3807L27.8042 4.11023L24.6042 2.26271Z" fill="#6BBDFE"/>
<path fill-rule="evenodd" clip-rule="evenodd" d="M26.4018 31.1604V10.7013L13.4092 3.2H3.2V38.6617H13.4092L14.9906 37.7486L18.1906 39.5961L14.2666 41.8617H0V0H14.2666L29.6018 8.85374V33.0079L27.7893 34.0543L24.5893 32.2068L26.4018 31.1604Z" fill="#4598FA"/>
<path d="M138.44 27.684C138.632 27.684 138.797 27.7587 138.936 27.908L140.28 29.38C139.341 30.4893 138.195 31.348 136.84 31.956C135.496 32.564 133.875 32.868 131.976 32.868C130.312 32.868 128.803 32.58 127.448 32.004C126.104 31.428 124.952 30.6227 123.992 29.588C123.043 28.5533 122.307 27.316 121.784 25.876C121.261 24.436 121 22.852 121 21.124C121 19.396 121.272 17.812 121.816 16.372C122.371 14.932 123.144 13.6947 124.136 12.66C125.128 11.6253 126.312 10.82 127.688 10.244C129.075 9.668 130.605 9.38 132.28 9.38C133.912 9.38 135.363 9.64667 136.632 10.18C137.901 10.7133 139.005 11.4227 139.944 12.308L138.824 13.892C138.749 14.0093 138.653 14.1053 138.536 14.18C138.429 14.2547 138.285 14.292 138.104 14.292C137.901 14.292 137.661 14.1907 137.384 13.988C137.117 13.7853 136.76 13.5613 136.312 13.316C135.875 13.06 135.331 12.8307 134.68 12.628C134.029 12.4253 133.219 12.324 132.248 12.324C131.107 12.324 130.061 12.5267 129.112 12.932C128.163 13.3267 127.341 13.9027 126.648 14.66C125.965 15.4067 125.432 16.3293 125.048 17.428C124.675 18.516 124.488 19.748 124.488 21.124C124.488 22.5213 124.685 23.764 125.08 24.852C125.475 25.94 126.019 26.8627 126.712 27.62C127.405 28.3773 128.221 28.9533 129.16 29.348C130.099 29.7427 131.112 29.94 132.2 29.94C132.861 29.94 133.453 29.9027 133.976 29.828C134.509 29.7427 134.995 29.62 135.432 29.46C135.88 29.3 136.301 29.0973 136.696 28.852C137.091 28.596 137.48 28.292 137.864 27.94C137.949 27.8653 138.04 27.8067 138.136 27.764C138.232 27.7107 138.333 27.684 138.44 27.684Z" fill="#4598FA"/>
<path d="M149.68 16.1C150.875 16.1 151.952 16.2973 152.912 16.692C153.883 17.076 154.704 17.636 155.376 18.372C156.059 19.0973 156.581 19.9773 156.944 21.012C157.307 22.036 157.488 23.188 157.488 24.468C157.488 25.748 157.307 26.9053 156.944 27.94C156.581 28.9747 156.059 29.8547 155.376 30.58C154.704 31.3053 153.883 31.8653 152.912 32.26C151.952 32.644 150.875 32.836 149.68 32.836C148.475 32.836 147.387 32.644 146.416 32.26C145.456 31.8653 144.635 31.3053 143.952 30.58C143.269 29.8547 142.741 28.9747 142.368 27.94C142.005 26.9053 141.824 25.748 141.824 24.468C141.824 23.188 142.005 22.036 142.368 21.012C142.741 19.9773 143.269 19.0973 143.952 18.372C144.635 17.636 145.456 17.076 146.416 16.692C147.387 16.2973 148.475 16.1 149.68 16.1ZM149.68 30.404C151.216 30.404 152.363 29.8867 153.12 28.852C153.877 27.8173 154.256 26.3613 154.256 24.484C154.256 22.6067 153.877 21.1507 153.12 20.116C152.363 19.0707 151.216 18.548 149.68 18.548C148.123 18.548 146.96 19.0707 146.192 20.116C145.435 21.1507 145.056 22.6067 145.056 24.484C145.056 26.3613 145.435 27.8173 146.192 28.852C146.96 29.8867 148.123 30.404 149.68 30.404Z" fill="#4598FA"/>
<path d="M163.899 18.612C164.251 18.2387 164.619 17.8973 165.003 17.588C165.387 17.2787 165.792 17.0173 166.219 16.804C166.656 16.58 167.12 16.4093 167.611 16.292C168.112 16.164 168.645 16.1 169.211 16.1C170.107 16.1 170.891 16.2493 171.563 16.548C172.245 16.8467 172.816 17.268 173.275 17.812C173.733 18.3453 174.08 18.9907 174.315 19.748C174.549 20.5053 174.667 21.3427 174.667 22.26V32.612H171.531V22.26C171.531 21.0973 171.264 20.196 170.731 19.556C170.197 18.9053 169.381 18.58 168.283 18.58C167.483 18.58 166.731 18.772 166.027 19.156C165.333 19.5293 164.688 20.0413 164.091 20.692V32.612H160.971V16.356H162.843C163.28 16.356 163.552 16.564 163.659 16.98L163.899 18.612Z" fill="#4598FA"/>
<path d="M181.805 18.612C182.157 18.2387 182.525 17.8973 182.909 17.588C183.293 17.2787 183.698 17.0173 184.125 16.804C184.562 16.58 185.026 16.4093 185.517 16.292C186.018 16.164 186.552 16.1 187.117 16.1C188.013 16.1 188.797 16.2493 189.469 16.548C190.152 16.8467 190.722 17.268 191.181 17.812C191.64 18.3453 191.986 18.9907 192.221 19.748C192.456 20.5053 192.573 21.3427 192.573 22.26V32.612H189.437V22.26C189.437 21.0973 189.17 20.196 188.637 19.556C188.104 18.9053 187.288 18.58 186.189 18.58C185.389 18.58 184.637 18.772 183.933 19.156C183.24 19.5293 182.594 20.0413 181.997 20.692V32.612H178.877V16.356H180.749C181.186 16.356 181.458 16.564 181.565 16.98L181.805 18.612Z" fill="#4598FA"/>
<path d="M207.551 22.676C207.551 22.0573 207.461 21.4867 207.279 20.964C207.109 20.4413 206.853 19.988 206.511 19.604C206.17 19.22 205.754 18.9213 205.263 18.708C204.773 18.4947 204.207 18.388 203.567 18.388C202.255 18.388 201.221 18.7667 200.463 19.524C199.717 20.2813 199.242 21.332 199.039 22.676H207.551ZM210.127 30.292C209.743 30.74 209.301 31.1293 208.799 31.46C208.298 31.78 207.765 32.0413 207.199 32.244C206.634 32.4467 206.047 32.596 205.439 32.692C204.842 32.788 204.25 32.836 203.663 32.836C202.543 32.836 201.503 32.6493 200.543 32.276C199.594 31.892 198.767 31.3373 198.063 30.612C197.37 29.876 196.826 28.9693 196.431 27.892C196.047 26.804 195.855 25.556 195.855 24.148C195.855 23.0173 196.031 21.9667 196.383 20.996C196.735 20.0147 197.237 19.1613 197.887 18.436C198.549 17.7107 199.354 17.14 200.303 16.724C201.253 16.308 202.319 16.1 203.503 16.1C204.495 16.1 205.407 16.2653 206.239 16.596C207.082 16.916 207.807 17.3853 208.415 18.004C209.023 18.6227 209.498 19.3853 209.839 20.292C210.191 21.1987 210.367 22.2333 210.367 23.396C210.367 23.876 210.314 24.2013 210.207 24.372C210.101 24.532 209.903 24.612 209.615 24.612H198.959C198.991 25.5827 199.13 26.4307 199.375 27.156C199.621 27.8707 199.957 28.468 200.383 28.948C200.821 29.428 201.338 29.7853 201.935 30.02C202.533 30.2547 203.199 30.372 203.935 30.372C204.629 30.372 205.226 30.292 205.727 30.132C206.239 29.972 206.677 29.8013 207.039 29.62C207.413 29.428 207.722 29.252 207.967 29.092C208.223 28.932 208.447 28.852 208.639 28.852C208.895 28.852 209.093 28.948 209.231 29.14L210.127 30.292Z" fill="#4598FA"/>
<path d="M225.113 19.396C225.017 19.5133 224.921 19.6093 224.825 19.684C224.739 19.748 224.611 19.78 224.441 19.78C224.27 19.78 224.089 19.716 223.897 19.588C223.715 19.4493 223.481 19.3053 223.193 19.156C222.915 18.996 222.574 18.852 222.169 18.724C221.774 18.5853 221.283 18.516 220.697 18.516C219.929 18.516 219.251 18.6547 218.665 18.932C218.078 19.2093 217.587 19.604 217.193 20.116C216.809 20.628 216.515 21.252 216.313 21.988C216.11 22.724 216.009 23.5507 216.009 24.468C216.009 25.4173 216.115 26.2653 216.329 27.012C216.542 27.748 216.846 28.372 217.241 28.884C217.635 29.3853 218.115 29.7693 218.681 30.036C219.246 30.292 219.875 30.42 220.569 30.42C221.241 30.42 221.795 30.34 222.233 30.18C222.67 30.0093 223.033 29.828 223.321 29.636C223.609 29.444 223.849 29.268 224.041 29.108C224.233 28.9373 224.43 28.852 224.633 28.852C224.889 28.852 225.086 28.948 225.225 29.14L226.121 30.292C225.747 30.7507 225.326 31.14 224.857 31.46C224.398 31.78 223.907 32.0413 223.385 32.244C222.862 32.4467 222.313 32.596 221.737 32.692C221.171 32.788 220.595 32.836 220.009 32.836C218.995 32.836 218.046 32.6493 217.161 32.276C216.286 31.9027 215.523 31.3587 214.873 30.644C214.233 29.9293 213.726 29.0547 213.353 28.02C212.979 26.9747 212.793 25.7907 212.793 24.468C212.793 23.2627 212.958 22.148 213.289 21.124C213.63 20.1 214.126 19.22 214.777 18.484C215.438 17.7373 216.249 17.156 217.209 16.74C218.169 16.3133 219.267 16.1 220.505 16.1C221.667 16.1 222.691 16.2867 223.577 16.66C224.462 17.0333 225.251 17.5613 225.945 18.244L225.113 19.396Z" fill="#4598FA"/>
<path d="M234.121 32.868C232.809 32.868 231.796 32.5 231.081 31.764C230.377 31.028 230.025 29.9773 230.025 28.612V18.884H228.137C227.956 18.884 227.801 18.8307 227.673 18.724C227.556 18.6067 227.497 18.436 227.497 18.212V16.948L230.137 16.58L230.841 11.732C230.884 11.5507 230.964 11.412 231.081 11.316C231.209 11.2093 231.369 11.156 231.561 11.156H233.145V16.612H237.753V18.884H233.145V28.404C233.145 29.044 233.3 29.524 233.609 29.844C233.929 30.1533 234.335 30.308 234.825 30.308C235.113 30.308 235.359 30.2707 235.561 30.196C235.775 30.1213 235.956 30.0413 236.105 29.956C236.255 29.86 236.383 29.7747 236.489 29.7C236.596 29.6253 236.692 29.588 236.777 29.588C236.884 29.588 236.964 29.6147 237.017 29.668C237.081 29.7107 237.145 29.7853 237.209 29.892L238.137 31.396C237.625 31.8653 237.017 32.228 236.313 32.484C235.609 32.74 234.879 32.868 234.121 32.868Z" fill="#4598FA"/>
<path fill-rule="evenodd" clip-rule="evenodd" d="M57.8154 33.2842V9H70.6597C73.9281 9.22427 76.4828 11.9486 76.4828 15.2433V27.026C76.4828 30.4823 73.6809 33.2842 70.2246 33.2842H57.8154ZM84.5586 9H81.2237V33.3211H84.5586V9ZM61.1503 29.9493V12.32H70.2246C71.8391 12.32 73.1479 13.6288 73.1479 15.2433V27.026C73.1479 28.6405 71.8391 29.9493 70.2246 29.9493H61.1503ZM89.2432 9V33.2842H101.652C105.109 33.2842 107.911 30.4823 107.911 27.026V15.2433C107.911 11.9486 105.356 9.22427 102.087 9H89.2432ZM112.155 14.6355H115.883V18.3639H112.155V14.6355ZM115.883 23.9572H112.155V27.6856H115.883V23.9572ZM92.5781 12.32V29.9493H101.652C103.267 29.9493 104.576 28.6405 104.576 27.026V15.2433C104.576 13.6288 103.267 12.32 101.652 12.32H92.5781Z" fill="#363844"/>
</svg>
